<svg width="313" height="238" viewBox="0 0 313 238" fill="none" xmlns="http://www.w3.org/2000/svg">
<rect x="0.226562" y="16.2733" width="21.6284" height="21.6284" rx="4.84528" transform="rotate(-45 0.226562 16.2733)" fill="url(#paint0_radial_3155_6421)" fill-opacity="0.2"/>
<rect x="40.5117" y="16.2733" width="21.6284" height="21.6284" rx="4.84528" transform="rotate(-45 40.5117 16.2733)" fill="url(#paint1_radial_3155_6421)" fill-opacity="0.2"/>
<rect x="80.7812" y="16.2733" width="21.6284" height="21.6284" rx="4.84528" transform="rotate(-45 80.7812 16.2733)" fill="url(#paint2_radial_3155_6421)" fill-opacity="0.2"/>
<rect x="121.062" y="16.2733" width="21.6284" height="21.6284" rx="4.84528" transform="rotate(-45 121.062 16.2733)" fill="url(#paint3_radial_3155_6421)" fill-opacity="0.2"/>
<rect x="161.34" y="16.2733" width="21.6284" height="21.6284" rx="4.84528" transform="rotate(-45 161.34 16.2733)" fill="url(#paint4_radial_3155_6421)" fill-opacity="0.2"/>
<rect x="201.625" y="16.2733" width="21.6284" height="21.6284" rx="4.84528" transform="rotate(-45 201.625 16.2733)" fill="url(#paint5_radial_3155_6421)" fill-opacity="0.2"/>
<rect x="241.895" y="16.2733" width="21.6284" height="21.6284" rx="4.84528" transform="rotate(-45 241.895 16.2733)" fill="url(#paint6_radial_3155_6421)" fill-opacity="0.2"/>
<rect x="282.18" y="16.2733" width="21.6284" height="21.6284" rx="4.84528" transform="rotate(-45 282.18 16.2733)" fill="url(#paint7_radial_3155_6421)" fill-opacity="0.2"/>
<rect x="0.226562" y="98.6432" width="21.6284" height="21.6284" rx="4.84528" transform="rotate(-45 0.226562 98.6432)" fill="url(#paint8_radial_3155_6421)" fill-opacity="0.2"/>
<rect x="40.5117" y="98.6432" width="21.6284" height="21.6284" rx="4.84528" transform="rotate(-45 40.5117 98.6432)" fill="url(#paint9_radial_3155_6421)" fill-opacity="0.2"/>
<rect x="80.7812" y="98.6432" width="21.6284" height="21.6284" rx="4.84528" transform="rotate(-45 80.7812 98.6432)" fill="url(#paint10_radial_3155_6421)" fill-opacity="0.2"/>
<rect x="121.062" y="98.6432" width="21.6284" height="21.6284" rx="4.84528" transform="rotate(-45 121.062 98.6432)" fill="url(#paint11_radial_3155_6421)" fill-opacity="0.2"/>
<rect x="161.34" y="98.6432" width="21.6284" height="21.6284" rx="4.84528" transform="rotate(-45 161.34 98.6432)" fill="url(#paint12_radial_3155_6421)" fill-opacity="0.2"/>
<rect x="201.625" y="98.6432" width="21.6284" height="21.6284" rx="4.84528" transform="rotate(-45 201.625 98.6432)" fill="url(#paint13_radial_3155_6421)" fill-opacity="0.2"/>
<rect x="241.895" y="98.6432" width="21.6284" height="21.6284" rx="4.84528" transform="rotate(-45 241.895 98.6432)" fill="url(#paint14_radial_3155_6421)" fill-opacity="0.2"/>
<rect x="282.18" y="98.6432" width="21.6284" height="21.6284" rx="4.84528" transform="rotate(-45 282.18 98.6432)" fill="url(#paint15_radial_3155_6421)" fill-opacity="0.2"/>
<rect x="0.226562" y="181.013" width="21.6284" height="21.6284" rx="4.84528" transform="rotate(-45 0.226562 181.013)" fill="url(#paint16_radial_3155_6421)" fill-opacity="0.2"/>
<rect x="40.5117" y="181.013" width="21.6284" height="21.6284" rx="4.84528" transform="rotate(-45 40.5117 181.013)" fill="url(#paint17_radial_3155_6421)" fill-opacity="0.2"/>
<rect x="80.7812" y="181.013" width="21.6284" height="21.6284" rx="4.84528" transform="rotate(-45 80.7812 181.013)" fill="url(#paint18_radial_3155_6421)" fill-opacity="0.2"/>
<rect x="121.062" y="181.013" width="21.6284" height="21.6284" rx="4.84528" transform="rotate(-45 121.062 181.013)" fill="url(#paint19_radial_3155_6421)" fill-opacity="0.2"/>
<rect x="161.34" y="181.013" width="21.6284" height="21.6284" rx="4.84528" transform="rotate(-45 161.34 181.013)" fill="url(#paint20_radial_3155_6421)" fill-opacity="0.2"/>
<rect x="201.625" y="181.013" width="21.6284" height="21.6284" rx="4.84528" transform="rotate(-45 201.625 181.013)" fill="url(#paint21_radial_3155_6421)" fill-opacity="0.2"/>
<rect x="241.895" y="181.013" width="21.6284" height="21.6284" rx="4.84528" transform="rotate(-45 241.895 181.013)" fill="url(#paint22_radial_3155_6421)" fill-opacity="0.2"/>
<rect x="282.18" y="181.013" width="21.6284" height="21.6284" rx="4.84528" transform="rotate(-45 282.18 181.013)" fill="url(#paint23_radial_3155_6421)" fill-opacity="0.2"/>
<rect x="0.226562" y="57.4583" width="21.6284" height="21.6284" rx="4.84528" transform="rotate(-45 0.226562 57.4583)" fill="url(#paint24_radial_3155_6421)" fill-opacity="0.2"/>
<rect x="40.5117" y="57.4583" width="21.6284" height="21.6284" rx="4.84528" transform="rotate(-45 40.5117 57.4583)" fill="url(#paint25_radial_3155_6421)" fill-opacity="0.2"/>
<rect x="80.7812" y="57.4583" width="21.6284" height="21.6284" rx="4.84528" transform="rotate(-45 80.7812 57.4583)" fill="url(#paint26_radial_3155_6421)" fill-opacity="0.2"/>
<rect x="121.062" y="57.4583" width="21.6284" height="21.6284" rx="4.84528" transform="rotate(-45 121.062 57.4583)" fill="url(#paint27_radial_3155_6421)" fill-opacity="0.2"/>
<rect x="161.34" y="57.4583" width="21.6284" height="21.6284" rx="4.84528" transform="rotate(-45 161.34 57.4583)" fill="url(#paint28_radial_3155_6421)" fill-opacity="0.2"/>
<rect x="201.625" y="57.4583" width="21.6284" height="21.6284" rx="4.84528" transform="rotate(-45 201.625 57.4583)" fill="url(#paint29_radial_3155_6421)" fill-opacity="0.2"/>
<rect x="241.895" y="57.4583" width="21.6284" height="21.6284" rx="4.84528" transform="rotate(-45 241.895 57.4583)" fill="url(#paint30_radial_3155_6421)" fill-opacity="0.2"/>
<rect x="282.18" y="57.4583" width="21.6284" height="21.6284" rx="4.84528" transform="rotate(-45 282.18 57.4583)" fill="url(#paint31_radial_3155_6421)" fill-opacity="0.2"/>
<rect x="0.226562" y="139.828" width="21.6284" height="21.6284" rx="4.84528" transform="rotate(-45 0.226562 139.828)" fill="url(#paint32_radial_3155_6421)" fill-opacity="0.2"/>
<rect x="40.5117" y="139.828" width="21.6284" height="21.6284" rx="4.84528" transform="rotate(-45 40.5117 139.828)" fill="url(#paint33_radial_3155_6421)" fill-opacity="0.2"/>
<rect x="80.7812" y="139.828" width="21.6284" height="21.6284" rx="4.84528" transform="rotate(-45 80.7812 139.828)" fill="url(#paint34_radial_3155_6421)" fill-opacity="0.2"/>
<rect x="121.062" y="139.828" width="21.6284" height="21.6284" rx="4.84528" transform="rotate(-45 121.062 139.828)" fill="url(#paint35_radial_3155_6421)" fill-opacity="0.2"/>
<rect x="161.34" y="139.828" width="21.6284" height="21.6284" rx="4.84528" transform="rotate(-45 161.34 139.828)" fill="url(#paint36_radial_3155_6421)" fill-opacity="0.2"/>
<rect x="201.625" y="139.828" width="21.6284" height="21.6284" rx="4.84528" transform="rotate(-45 201.625 139.828)" fill="url(#paint37_radial_3155_6421)" fill-opacity="0.2"/>
<rect x="241.895" y="139.828" width="21.6284" height="21.6284" rx="4.84528" transform="rotate(-45 241.895 139.828)" fill="url(#paint38_radial_3155_6421)" fill-opacity="0.2"/>
<rect x="282.18" y="139.828" width="21.6284" height="21.6284" rx="4.84528" transform="rotate(-45 282.18 139.828)" fill="url(#paint39_radial_3155_6421)" fill-opacity="0.2"/>
<rect x="0.226562" y="222.198" width="21.6284" height="21.6284" rx="4.84528" transform="rotate(-45 0.226562 222.198)" fill="url(#paint40_radial_3155_6421)" fill-opacity="0.2"/>
<rect x="40.5117" y="222.198" width="21.6284" height="21.6284" rx="4.84528" transform="rotate(-45 40.5117 222.198)" fill="url(#paint41_radial_3155_6421)" fill-opacity="0.2"/>
<rect x="80.7812" y="222.198" width="21.6284" height="21.6284" rx="4.84528" transform="rotate(-45 80.7812 222.198)" fill="url(#paint42_radial_3155_6421)" fill-opacity="0.2"/>
<rect x="121.062" y="222.198" width="21.6284" height="21.6284" rx="4.84528" transform="rotate(-45 121.062 222.198)" fill="url(#paint43_radial_3155_6421)" fill-opacity="0.2"/>
<rect x="161.34" y="222.198" width="21.6284" height="21.6284" rx="4.84528" transform="rotate(-45 161.34 222.198)" fill="url(#paint44_radial_3155_6421)" fill-opacity="0.2"/>
<rect x="201.625" y="222.198" width="21.6284" height="21.6284" rx="4.84528" transform="rotate(-45 201.625 222.198)" fill="url(#paint45_radial_3155_6421)" fill-opacity="0.2"/>
<rect x="241.895" y="222.198" width="21.6284" height="21.6284" rx="4.84528" transform="rotate(-45 241.895 222.198)" fill="url(#paint46_radial_3155_6421)" fill-opacity="0.2"/>
<rect x="282.18" y="222.198" width="21.6284" height="21.6284" rx="4.84528" transform="rotate(-45 282.18 222.198)" fill="url(#paint47_radial_3155_6421)" fill-opacity="0.2"/>
<defs>
<radialGradient id="paint0_radial_3155_6421" cx="0" cy="0" r="1" gradientUnits="userSpaceOnUse" gradientTransform="translate(11.0407 27.0875) rotate(85.3036) scale(20.7276)">
<stop stop-color="white"/>
<stop offset="1" stop-color="#FAFAFA"/>
</radialGradient>
<radialGradient id="paint1_radial_3155_6421" cx="0" cy="0" r="1" gradientUnits="userSpaceOnUse" gradientTransform="translate(51.3259 27.0875) rotate(85.3036) scale(20.7276)">
<stop stop-color="white"/>
<stop offset="1" stop-color="#FAFAFA"/>
</radialGradient>
<radialGradient id="paint2_radial_3155_6421" cx="0" cy="0" r="1" gradientUnits="userSpaceOnUse" gradientTransform="translate(91.5954 27.0875) rotate(85.3036) scale(20.7276)">
<stop stop-color="white"/>
<stop offset="1" stop-color="#FAFAFA"/>
</radialGradient>
<radialGradient id="paint3_radial_3155_6421" cx="0" cy="0" r="1" gradientUnits="userSpaceOnUse" gradientTransform="translate(131.877 27.0875) rotate(85.3036) scale(20.7276)">
<stop stop-color="white"/>
<stop offset="1" stop-color="#FAFAFA"/>
</radialGradient>
<radialGradient id="paint4_radial_3155_6421" cx="0" cy="0" r="1" gradientUnits="userSpaceOnUse" gradientTransform="translate(172.154 27.0875) rotate(85.3036) scale(20.7276)">
<stop stop-color="white"/>
<stop offset="1" stop-color="#FAFAFA"/>
</radialGradient>
<radialGradient id="paint5_radial_3155_6421" cx="0" cy="0" r="1" gradientUnits="userSpaceOnUse" gradientTransform="translate(212.439 27.0875) rotate(85.3036) scale(20.7276)">
<stop stop-color="white"/>
<stop offset="1" stop-color="#FAFAFA"/>
</radialGradient>
<radialGradient id="paint6_radial_3155_6421" cx="0" cy="0" r="1" gradientUnits="userSpaceOnUse" gradientTransform="translate(252.709 27.0875) rotate(85.3036) scale(20.7276)">
<stop stop-color="white"/>
<stop offset="1" stop-color="#FAFAFA"/>
</radialGradient>
<radialGradient id="paint7_radial_3155_6421" cx="0" cy="0" r="1" gradientUnits="userSpaceOnUse" gradientTransform="translate(292.994 27.0875) rotate(85.3036) scale(20.7276)">
<stop stop-color="white"/>
<stop offset="1" stop-color="#FAFAFA"/>
</radialGradient>
<radialGradient id="paint8_radial_3155_6421" cx="0" cy="0" r="1" gradientUnits="userSpaceOnUse" gradientTransform="translate(11.0407 109.457) rotate(85.3036) scale(20.7276)">
<stop stop-color="white"/>
<stop offset="1" stop-color="#FAFAFA"/>
</radialGradient>
<radialGradient id="paint9_radial_3155_6421" cx="0" cy="0" r="1" gradientUnits="userSpaceOnUse" gradientTransform="translate(51.3259 109.457) rotate(85.3036) scale(20.7276)">
<stop stop-color="white"/>
<stop offset="1" stop-color="#FAFAFA"/>
</radialGradient>
<radialGradient id="paint10_radial_3155_6421" cx="0" cy="0" r="1" gradientUnits="userSpaceOnUse" gradientTransform="translate(91.5954 109.457) rotate(85.3036) scale(20.7276)">
<stop stop-color="white"/>
<stop offset="1" stop-color="#FAFAFA"/>
</radialGradient>
<radialGradient id="paint11_radial_3155_6421" cx="0" cy="0" r="1" gradientUnits="userSpaceOnUse" gradientTransform="translate(131.877 109.457) rotate(85.3036) scale(20.7276)">
<stop stop-color="white"/>
<stop offset="1" stop-color="#FAFAFA"/>
</radialGradient>
<radialGradient id="paint12_radial_3155_6421" cx="0" cy="0" r="1" gradientUnits="userSpaceOnUse" gradientTransform="translate(172.154 109.457) rotate(85.3036) scale(20.7276)">
<stop stop-color="white"/>
<stop offset="1" stop-color="#FAFAFA"/>
</radialGradient>
<radialGradient id="paint13_radial_3155_6421" cx="0" cy="0" r="1" gradientUnits="userSpaceOnUse" gradientTransform="translate(212.439 109.457) rotate(85.3036) scale(20.7276)">
<stop stop-color="white"/>
<stop offset="1" stop-color="#FAFAFA"/>
</radialGradient>
<radialGradient id="paint14_radial_3155_6421" cx="0" cy="0" r="1" gradientUnits="userSpaceOnUse" gradientTransform="translate(252.709 109.457) rotate(85.3036) scale(20.7276)">
<stop stop-color="white"/>
<stop offset="1" stop-color="#FAFAFA"/>
</radialGradient>
<radialGradient id="paint15_radial_3155_6421" cx="0" cy="0" r="1" gradientUnits="userSpaceOnUse" gradientTransform="translate(292.994 109.457) rotate(85.3036) scale(20.7276)">
<stop stop-color="white"/>
<stop offset="1" stop-color="#FAFAFA"/>
</radialGradient>
<radialGradient id="paint16_radial_3155_6421" cx="0" cy="0" r="1" gradientUnits="userSpaceOnUse" gradientTransform="translate(11.0407 191.827) rotate(85.3036) scale(20.7276)">
<stop stop-color="white"/>
<stop offset="1" stop-color="#FAFAFA"/>
</radialGradient>
<radialGradient id="paint17_radial_3155_6421" cx="0" cy="0" r="1" gradientUnits="userSpaceOnUse" gradientTransform="translate(51.3259 191.827) rotate(85.3036) scale(20.7276)">
<stop stop-color="white"/>
<stop offset="1" stop-color="#FAFAFA"/>
</radialGradient>
<radialGradient id="paint18_radial_3155_6421" cx="0" cy="0" r="1" gradientUnits="userSpaceOnUse" gradientTransform="translate(91.5954 191.827) rotate(85.3036) scale(20.7276)">
<stop stop-color="white"/>
<stop offset="1" stop-color="#FAFAFA"/>
</radialGradient>
<radialGradient id="paint19_radial_3155_6421" cx="0" cy="0" r="1" gradientUnits="userSpaceOnUse" gradientTransform="translate(131.877 191.827) rotate(85.3036) scale(20.7276)">
<stop stop-color="white"/>
<stop offset="1" stop-color="#FAFAFA"/>
</radialGradient>
<radialGradient id="paint20_radial_3155_6421" cx="0" cy="0" r="1" gradientUnits="userSpaceOnUse" gradientTransform="translate(172.154 191.827) rotate(85.3036) scale(20.7276)">
<stop stop-color="white"/>
<stop offset="1" stop-color="#FAFAFA"/>
</radialGradient>
<radialGradient id="paint21_radial_3155_6421" cx="0" cy="0" r="1" gradientUnits="userSpaceOnUse" gradientTransform="translate(212.439 191.827) rotate(85.3036) scale(20.7276)">
<stop stop-color="white"/>
<stop offset="1" stop-color="#FAFAFA"/>
</radialGradient>
<radialGradient id="paint22_radial_3155_6421" cx="0" cy="0" r="1" gradientUnits="userSpaceOnUse" gradientTransform="translate(252.709 191.827) rotate(85.3036) scale(20.7276)">
<stop stop-color="white"/>
<stop offset="1" stop-color="#FAFAFA"/>
</radialGradient>
<radialGradient id="paint23_radial_3155_6421" cx="0" cy="0" r="1" gradientUnits="userSpaceOnUse" gradientTransform="translate(292.994 191.827) rotate(85.3036) scale(20.7276)">
<stop stop-color="white"/>
<stop offset="1" stop-color="#FAFAFA"/>
</radialGradient>
<radialGradient id="paint24_radial_3155_6421" cx="0" cy="0" r="1" gradientUnits="userSpaceOnUse" gradientTransform="translate(11.0407 68.2724) rotate(85.3036) scale(20.7276)">
<stop stop-color="white"/>
<stop offset="1" stop-color="#FAFAFA"/>
</radialGradient>
<radialGradient id="paint25_radial_3155_6421" cx="0" cy="0" r="1" gradientUnits="userSpaceOnUse" gradientTransform="translate(51.3259 68.2724) rotate(85.3036) scale(20.7276)">
<stop stop-color="white"/>
<stop offset="1" stop-color="#FAFAFA"/>
</radialGradient>
<radialGradient id="paint26_radial_3155_6421" cx="0" cy="0" r="1" gradientUnits="userSpaceOnUse" gradientTransform="translate(91.5954 68.2724) rotate(85.3036) scale(20.7276)">
<stop stop-color="white"/>
<stop offset="1" stop-color="#FAFAFA"/>
</radialGradient>
<radialGradient id="paint27_radial_3155_6421" cx="0" cy="0" r="1" gradientUnits="userSpaceOnUse" gradientTransform="translate(131.877 68.2724) rotate(85.3036) scale(20.7276)">
<stop stop-color="white"/>
<stop offset="1" stop-color="#FAFAFA"/>
</radialGradient>
<radialGradient id="paint28_radial_3155_6421" cx="0" cy="0" r="1" gradientUnits="userSpaceOnUse" gradientTransform="translate(172.154 68.2724) rotate(85.3036) scale(20.7276)">
<stop stop-color="white"/>
<stop offset="1" stop-color="#FAFAFA"/>
</radialGradient>
<radialGradient id="paint29_radial_3155_6421" cx="0" cy="0" r="1" gradientUnits="userSpaceOnUse" gradientTransform="translate(212.439 68.2724) rotate(85.3036) scale(20.7276)">
<stop stop-color="white"/>
<stop offset="1" stop-color="#FAFAFA"/>
</radialGradient>
<radialGradient id="paint30_radial_3155_6421" cx="0" cy="0" r="1" gradientUnits="userSpaceOnUse" gradientTransform="translate(252.709 68.2724) rotate(85.3036) scale(20.7276)">
<stop stop-color="white"/>
<stop offset="1" stop-color="#FAFAFA"/>
</radialGradient>
<radialGradient id="paint31_radial_3155_6421" cx="0" cy="0" r="1" gradientUnits="userSpaceOnUse" gradientTransform="translate(292.994 68.2724) rotate(85.3036) scale(20.7276)">
<stop stop-color="white"/>
<stop offset="1" stop-color="#FAFAFA"/>
</radialGradient>
<radialGradient id="paint32_radial_3155_6421" cx="0" cy="0" r="1" gradientUnits="userSpaceOnUse" gradientTransform="translate(11.0407 150.642) rotate(85.3036) scale(20.7276)">
<stop stop-color="white"/>
<stop offset="1" stop-color="#FAFAFA"/>
</radialGradient>
<radialGradient id="paint33_radial_3155_6421" cx="0" cy="0" r="1" gradientUnits="userSpaceOnUse" gradientTransform="translate(51.3259 150.642) rotate(85.3036) scale(20.7276)">
<stop stop-color="white"/>
<stop offset="1" stop-color="#FAFAFA"/>
</radialGradient>
<radialGradient id="paint34_radial_3155_6421" cx="0" cy="0" r="1" gradientUnits="userSpaceOnUse" gradientTransform="translate(91.5954 150.642) rotate(85.3036) scale(20.7276)">
<stop stop-color="white"/>
<stop offset="1" stop-color="#FAFAFA"/>
</radialGradient>
<radialGradient id="paint35_radial_3155_6421" cx="0" cy="0" r="1" gradientUnits="userSpaceOnUse" gradientTransform="translate(131.877 150.642) rotate(85.3036) scale(20.7276)">
<stop stop-color="white"/>
<stop offset="1" stop-color="#FAFAFA"/>
</radialGradient>
<radialGradient id="paint36_radial_3155_6421" cx="0" cy="0" r="1" gradientUnits="userSpaceOnUse" gradientTransform="translate(172.154 150.642) rotate(85.3036) scale(20.7276)">
<stop stop-color="white"/>
<stop offset="1" stop-color="#FAFAFA"/>
</radialGradient>
<radialGradient id="paint37_radial_3155_6421" cx="0" cy="0" r="1" gradientUnits="userSpaceOnUse" gradientTransform="translate(212.439 150.642) rotate(85.3036) scale(20.7276)">
<stop stop-color="white"/>
<stop offset="1" stop-color="#FAFAFA"/>
</radialGradient>
<radialGradient id="paint38_radial_3155_6421" cx="0" cy="0" r="1" gradientUnits="userSpaceOnUse" gradientTransform="translate(252.709 150.642) rotate(85.3036) scale(20.7276)">
<stop stop-color="white"/>
<stop offset="1" stop-color="#FAFAFA"/>
</radialGradient>
<radialGradient id="paint39_radial_3155_6421" cx="0" cy="0" r="1" gradientUnits="userSpaceOnUse" gradientTransform="translate(292.994 150.642) rotate(85.3036) scale(20.7276)">
<stop stop-color="white"/>
<stop offset="1" stop-color="#FAFAFA"/>
</radialGradient>
<radialGradient id="paint40_radial_3155_6421" cx="0" cy="0" r="1" gradientUnits="userSpaceOnUse" gradientTransform="translate(11.0407 233.012) rotate(85.3036) scale(20.7276)">
<stop stop-color="white"/>
<stop offset="1" stop-color="#FAFAFA"/>
</radialGradient>
<radialGradient id="paint41_radial_3155_6421" cx="0" cy="0" r="1" gradientUnits="userSpaceOnUse" gradientTransform="translate(51.3259 233.012) rotate(85.3036) scale(20.7276)">
<stop stop-color="white"/>
<stop offset="1" stop-color="#FAFAFA"/>
</radialGradient>
<radialGradient id="paint42_radial_3155_6421" cx="0" cy="0" r="1" gradientUnits="userSpaceOnUse" gradientTransform="translate(91.5954 233.012) rotate(85.3036) scale(20.7276)">
<stop stop-color="white"/>
<stop offset="1" stop-color="#FAFAFA"/>
</radialGradient>
<radialGradient id="paint43_radial_3155_6421" cx="0" cy="0" r="1" gradientUnits="userSpaceOnUse" gradientTransform="translate(131.877 233.012) rotate(85.3036) scale(20.7276)">
<stop stop-color="white"/>
<stop offset="1" stop-color="#FAFAFA"/>
</radialGradient>
<radialGradient id="paint44_radial_3155_6421" cx="0" cy="0" r="1" gradientUnits="userSpaceOnUse" gradientTransform="translate(172.154 233.012) rotate(85.3036) scale(20.7276)">
<stop stop-color="white"/>
<stop offset="1" stop-color="#FAFAFA"/>
</radialGradient>
<radialGradient id="paint45_radial_3155_6421" cx="0" cy="0" r="1" gradientUnits="userSpaceOnUse" gradientTransform="translate(212.439 233.012) rotate(85.3036) scale(20.7276)">
<stop stop-color="white"/>
<stop offset="1" stop-color="#FAFAFA"/>
</radialGradient>
<radialGradient id="paint46_radial_3155_6421" cx="0" cy="0" r="1" gradientUnits="userSpaceOnUse" gradientTransform="translate(252.709 233.012) rotate(85.3036) scale(20.7276)">
<stop stop-color="white"/>
<stop offset="1" stop-color="#FAFAFA"/>
</radialGradient>
<radialGradient id="paint47_radial_3155_6421" cx="0" cy="0" r="1" gradientUnits="userSpaceOnUse" gradientTransform="translate(292.994 233.012) rotate(85.3036) scale(20.7276)">
<stop stop-color="white"/>
<stop offset="1" stop-color="#FAFAFA"/>
</radialGradient>
</defs>
</svg>
