<svg width="1866" height="978" viewBox="0 0 1866 978" fill="none" xmlns="http://www.w3.org/2000/svg">
<rect opacity="0.5" x="1359.05" y="469.218" width="496.697" height="496.697" rx="77.813" transform="rotate(-45 1359.05 469.218)" fill="url(#paint0_radial_615_992)"/>
<rect opacity="0.5" x="1233.05" y="462.218" width="496.697" height="496.697" rx="77.813" transform="rotate(-45 1233.05 462.218)" fill="url(#paint1_radial_615_992)"/>
<rect opacity="0.4" x="1357.05" y="691.25" width="245.012" height="245.012" rx="38.3839" transform="rotate(-45 1357.05 691.25)" fill="url(#paint2_radial_615_992)"/>
<path d="M1.15716e-05 385.414C-0.000159442 353.595 23.3751 326.608 54.8684 322.069L2285.55 0.500985L2285.55 669.5L72.8091 976.886C34.3312 982.231 0.00310503 952.343 0.00289266 913.495L1.15716e-05 385.414Z" fill="#F7F7F7"/>
<rect x="1233.05" y="461.218" width="496.697" height="496.697" rx="77.813" transform="rotate(-45 1233.05 461.218)" fill="url(#paint3_radial_615_992)" fill-opacity="0.2"/>
<rect x="1374.05" y="669.415" width="17.5579" height="17.5579" rx="3.9334" transform="rotate(-45 1374.05 669.415)" fill="url(#paint4_radial_615_992)" fill-opacity="0.6"/>
<rect x="1406.75" y="669.415" width="17.5579" height="17.5579" rx="3.9334" transform="rotate(-45 1406.75 669.415)" fill="url(#paint5_radial_615_992)" fill-opacity="0.6"/>
<rect x="1439.45" y="669.415" width="17.5579" height="17.5579" rx="3.9334" transform="rotate(-45 1439.45 669.415)" fill="url(#paint6_radial_615_992)" fill-opacity="0.6"/>
<rect x="1472.14" y="669.415" width="17.5579" height="17.5579" rx="3.9334" transform="rotate(-45 1472.14 669.415)" fill="url(#paint7_radial_615_992)" fill-opacity="0.6"/>
<rect x="1504.85" y="669.415" width="17.5579" height="17.5579" rx="3.9334" transform="rotate(-45 1504.85 669.415)" fill="url(#paint8_radial_615_992)" fill-opacity="0.6"/>
<rect x="1537.54" y="669.415" width="17.5579" height="17.5579" rx="3.9334" transform="rotate(-45 1537.54 669.415)" fill="url(#paint9_radial_615_992)" fill-opacity="0.6"/>
<rect x="1570.24" y="669.415" width="17.5579" height="17.5579" rx="3.9334" transform="rotate(-45 1570.24 669.415)" fill="url(#paint10_radial_615_992)" fill-opacity="0.6"/>
<rect x="1602.94" y="669.415" width="17.5579" height="17.5579" rx="3.9334" transform="rotate(-45 1602.94 669.415)" fill="url(#paint11_radial_615_992)" fill-opacity="0.6"/>
<rect x="1374.05" y="736.283" width="17.5579" height="17.5579" rx="3.9334" transform="rotate(-45 1374.05 736.283)" fill="url(#paint12_radial_615_992)" fill-opacity="0.6"/>
<rect x="1406.75" y="736.283" width="17.5579" height="17.5579" rx="3.9334" transform="rotate(-45 1406.75 736.283)" fill="url(#paint13_radial_615_992)" fill-opacity="0.6"/>
<rect x="1439.45" y="736.283" width="17.5579" height="17.5579" rx="3.9334" transform="rotate(-45 1439.45 736.283)" fill="url(#paint14_radial_615_992)" fill-opacity="0.6"/>
<rect x="1472.14" y="736.283" width="17.5579" height="17.5579" rx="3.9334" transform="rotate(-45 1472.14 736.283)" fill="url(#paint15_radial_615_992)" fill-opacity="0.6"/>
<rect x="1504.85" y="736.283" width="17.5579" height="17.5579" rx="3.9334" transform="rotate(-45 1504.85 736.283)" fill="url(#paint16_radial_615_992)" fill-opacity="0.6"/>
<rect x="1537.54" y="736.283" width="17.5579" height="17.5579" rx="3.9334" transform="rotate(-45 1537.54 736.283)" fill="url(#paint17_radial_615_992)" fill-opacity="0.6"/>
<rect x="1570.24" y="736.283" width="17.5579" height="17.5579" rx="3.9334" transform="rotate(-45 1570.24 736.283)" fill="url(#paint18_radial_615_992)" fill-opacity="0.6"/>
<rect x="1602.94" y="736.283" width="17.5579" height="17.5579" rx="3.9334" transform="rotate(-45 1602.94 736.283)" fill="url(#paint19_radial_615_992)" fill-opacity="0.6"/>
<rect x="1374.05" y="803.151" width="17.5579" height="17.5579" rx="3.9334" transform="rotate(-45 1374.05 803.151)" fill="url(#paint20_radial_615_992)" fill-opacity="0.6"/>
<rect x="1406.75" y="803.151" width="17.5579" height="17.5579" rx="3.9334" transform="rotate(-45 1406.75 803.151)" fill="url(#paint21_radial_615_992)" fill-opacity="0.6"/>
<rect x="1439.45" y="803.151" width="17.5579" height="17.5579" rx="3.9334" transform="rotate(-45 1439.45 803.151)" fill="url(#paint22_radial_615_992)" fill-opacity="0.6"/>
<rect x="1472.14" y="803.151" width="17.5579" height="17.5579" rx="3.9334" transform="rotate(-45 1472.14 803.151)" fill="url(#paint23_radial_615_992)" fill-opacity="0.6"/>
<rect x="1504.85" y="803.151" width="17.5579" height="17.5579" rx="3.9334" transform="rotate(-45 1504.85 803.151)" fill="url(#paint24_radial_615_992)" fill-opacity="0.6"/>
<rect x="1537.54" y="803.151" width="17.5579" height="17.5579" rx="3.9334" transform="rotate(-45 1537.54 803.151)" fill="url(#paint25_radial_615_992)" fill-opacity="0.6"/>
<rect x="1570.24" y="803.151" width="17.5579" height="17.5579" rx="3.9334" transform="rotate(-45 1570.24 803.151)" fill="url(#paint26_radial_615_992)" fill-opacity="0.6"/>
<rect x="1602.94" y="803.151" width="17.5579" height="17.5579" rx="3.9334" transform="rotate(-45 1602.94 803.151)" fill="url(#paint27_radial_615_992)" fill-opacity="0.6"/>
<rect x="1374.05" y="702.849" width="17.5579" height="17.5579" rx="3.9334" transform="rotate(-45 1374.05 702.849)" fill="url(#paint28_radial_615_992)" fill-opacity="0.6"/>
<rect x="1406.75" y="702.849" width="17.5579" height="17.5579" rx="3.9334" transform="rotate(-45 1406.75 702.849)" fill="url(#paint29_radial_615_992)" fill-opacity="0.6"/>
<rect x="1439.45" y="702.849" width="17.5579" height="17.5579" rx="3.9334" transform="rotate(-45 1439.45 702.849)" fill="url(#paint30_radial_615_992)" fill-opacity="0.6"/>
<rect x="1472.14" y="702.849" width="17.5579" height="17.5579" rx="3.9334" transform="rotate(-45 1472.14 702.849)" fill="url(#paint31_radial_615_992)" fill-opacity="0.6"/>
<rect x="1504.85" y="702.849" width="17.5579" height="17.5579" rx="3.9334" transform="rotate(-45 1504.85 702.849)" fill="url(#paint32_radial_615_992)" fill-opacity="0.6"/>
<rect x="1537.54" y="702.849" width="17.5579" height="17.5579" rx="3.9334" transform="rotate(-45 1537.54 702.849)" fill="url(#paint33_radial_615_992)" fill-opacity="0.6"/>
<rect x="1570.24" y="702.849" width="17.5579" height="17.5579" rx="3.9334" transform="rotate(-45 1570.24 702.849)" fill="url(#paint34_radial_615_992)" fill-opacity="0.6"/>
<rect x="1602.94" y="702.849" width="17.5579" height="17.5579" rx="3.9334" transform="rotate(-45 1602.94 702.849)" fill="url(#paint35_radial_615_992)" fill-opacity="0.6"/>
<rect x="1374.05" y="769.717" width="17.5579" height="17.5579" rx="3.9334" transform="rotate(-45 1374.05 769.717)" fill="url(#paint36_radial_615_992)" fill-opacity="0.6"/>
<rect x="1406.75" y="769.717" width="17.5579" height="17.5579" rx="3.9334" transform="rotate(-45 1406.75 769.717)" fill="url(#paint37_radial_615_992)" fill-opacity="0.6"/>
<rect x="1439.45" y="769.717" width="17.5579" height="17.5579" rx="3.9334" transform="rotate(-45 1439.45 769.717)" fill="url(#paint38_radial_615_992)" fill-opacity="0.6"/>
<rect x="1472.14" y="769.717" width="17.5579" height="17.5579" rx="3.9334" transform="rotate(-45 1472.14 769.717)" fill="url(#paint39_radial_615_992)" fill-opacity="0.6"/>
<rect x="1504.85" y="769.717" width="17.5579" height="17.5579" rx="3.9334" transform="rotate(-45 1504.85 769.717)" fill="url(#paint40_radial_615_992)" fill-opacity="0.6"/>
<rect x="1537.54" y="769.717" width="17.5579" height="17.5579" rx="3.9334" transform="rotate(-45 1537.54 769.717)" fill="url(#paint41_radial_615_992)" fill-opacity="0.6"/>
<rect x="1570.24" y="769.717" width="17.5579" height="17.5579" rx="3.9334" transform="rotate(-45 1570.24 769.717)" fill="url(#paint42_radial_615_992)" fill-opacity="0.6"/>
<rect x="1602.94" y="769.717" width="17.5579" height="17.5579" rx="3.9334" transform="rotate(-45 1602.94 769.717)" fill="url(#paint43_radial_615_992)" fill-opacity="0.6"/>
<rect x="1374.05" y="836.585" width="17.5579" height="17.5579" rx="3.9334" transform="rotate(-45 1374.05 836.585)" fill="url(#paint44_radial_615_992)" fill-opacity="0.6"/>
<rect x="1406.75" y="836.585" width="17.5579" height="17.5579" rx="3.9334" transform="rotate(-45 1406.75 836.585)" fill="url(#paint45_radial_615_992)" fill-opacity="0.6"/>
<rect x="1439.45" y="836.585" width="17.5579" height="17.5579" rx="3.9334" transform="rotate(-45 1439.45 836.585)" fill="url(#paint46_radial_615_992)" fill-opacity="0.6"/>
<rect x="1472.14" y="836.585" width="17.5579" height="17.5579" rx="3.9334" transform="rotate(-45 1472.14 836.585)" fill="url(#paint47_radial_615_992)" fill-opacity="0.6"/>
<rect x="1504.85" y="836.585" width="17.5579" height="17.5579" rx="3.9334" transform="rotate(-45 1504.85 836.585)" fill="url(#paint48_radial_615_992)" fill-opacity="0.6"/>
<rect x="1537.54" y="836.585" width="17.5579" height="17.5579" rx="3.9334" transform="rotate(-45 1537.54 836.585)" fill="url(#paint49_radial_615_992)" fill-opacity="0.6"/>
<rect x="1570.24" y="836.585" width="17.5579" height="17.5579" rx="3.9334" transform="rotate(-45 1570.24 836.585)" fill="url(#paint50_radial_615_992)" fill-opacity="0.6"/>
<rect x="1602.94" y="836.585" width="17.5579" height="17.5579" rx="3.9334" transform="rotate(-45 1602.94 836.585)" fill="url(#paint51_radial_615_992)" fill-opacity="0.6"/>
<defs>
<radialGradient id="paint0_radial_615_992" cx="0" cy="0" r="1" gradientUnits="userSpaceOnUse" gradientTransform="translate(1607.4 717.566) rotate(85.3036) scale(476.011)">
<stop stop-color="white"/>
<stop offset="1" stop-color="#FAFAFA"/>
</radialGradient>
<radialGradient id="paint1_radial_615_992" cx="0" cy="0" r="1" gradientUnits="userSpaceOnUse" gradientTransform="translate(1481.4 710.566) rotate(85.3036) scale(476.011)">
<stop stop-color="white"/>
<stop offset="1" stop-color="#FAFAFA"/>
</radialGradient>
<radialGradient id="paint2_radial_615_992" cx="0" cy="0" r="1" gradientUnits="userSpaceOnUse" gradientTransform="translate(1479.56 813.756) rotate(85.3036) scale(234.808)">
<stop stop-color="white"/>
<stop offset="1" stop-color="#FAFAFA"/>
</radialGradient>
<radialGradient id="paint3_radial_615_992" cx="0" cy="0" r="1" gradientUnits="userSpaceOnUse" gradientTransform="translate(1481.4 709.566) rotate(85.3036) scale(476.011)">
<stop stop-color="white"/>
<stop offset="1" stop-color="#FAFAFA"/>
</radialGradient>
<radialGradient id="paint4_radial_615_992" cx="0" cy="0" r="1" gradientUnits="userSpaceOnUse" gradientTransform="translate(1382.83 678.194) rotate(85.3036) scale(16.8266)">
<stop stop-color="white"/>
<stop offset="1" stop-color="#FAFAFA"/>
</radialGradient>
<radialGradient id="paint5_radial_615_992" cx="0" cy="0" r="1" gradientUnits="userSpaceOnUse" gradientTransform="translate(1415.53 678.194) rotate(85.3036) scale(16.8266)">
<stop stop-color="white"/>
<stop offset="1" stop-color="#FAFAFA"/>
</radialGradient>
<radialGradient id="paint6_radial_615_992" cx="0" cy="0" r="1" gradientUnits="userSpaceOnUse" gradientTransform="translate(1448.23 678.194) rotate(85.3036) scale(16.8266)">
<stop stop-color="white"/>
<stop offset="1" stop-color="#FAFAFA"/>
</radialGradient>
<radialGradient id="paint7_radial_615_992" cx="0" cy="0" r="1" gradientUnits="userSpaceOnUse" gradientTransform="translate(1480.92 678.194) rotate(85.3036) scale(16.8266)">
<stop stop-color="white"/>
<stop offset="1" stop-color="#FAFAFA"/>
</radialGradient>
<radialGradient id="paint8_radial_615_992" cx="0" cy="0" r="1" gradientUnits="userSpaceOnUse" gradientTransform="translate(1513.63 678.194) rotate(85.3036) scale(16.8266)">
<stop stop-color="white"/>
<stop offset="1" stop-color="#FAFAFA"/>
</radialGradient>
<radialGradient id="paint9_radial_615_992" cx="0" cy="0" r="1" gradientUnits="userSpaceOnUse" gradientTransform="translate(1546.32 678.194) rotate(85.3036) scale(16.8266)">
<stop stop-color="white"/>
<stop offset="1" stop-color="#FAFAFA"/>
</radialGradient>
<radialGradient id="paint10_radial_615_992" cx="0" cy="0" r="1" gradientUnits="userSpaceOnUse" gradientTransform="translate(1579.02 678.194) rotate(85.3036) scale(16.8266)">
<stop stop-color="white"/>
<stop offset="1" stop-color="#FAFAFA"/>
</radialGradient>
<radialGradient id="paint11_radial_615_992" cx="0" cy="0" r="1" gradientUnits="userSpaceOnUse" gradientTransform="translate(1611.72 678.194) rotate(85.3036) scale(16.8266)">
<stop stop-color="white"/>
<stop offset="1" stop-color="#FAFAFA"/>
</radialGradient>
<radialGradient id="paint12_radial_615_992" cx="0" cy="0" r="1" gradientUnits="userSpaceOnUse" gradientTransform="translate(1382.83 745.062) rotate(85.3036) scale(16.8266)">
<stop stop-color="white"/>
<stop offset="1" stop-color="#FAFAFA"/>
</radialGradient>
<radialGradient id="paint13_radial_615_992" cx="0" cy="0" r="1" gradientUnits="userSpaceOnUse" gradientTransform="translate(1415.53 745.062) rotate(85.3036) scale(16.8266)">
<stop stop-color="white"/>
<stop offset="1" stop-color="#FAFAFA"/>
</radialGradient>
<radialGradient id="paint14_radial_615_992" cx="0" cy="0" r="1" gradientUnits="userSpaceOnUse" gradientTransform="translate(1448.23 745.062) rotate(85.3036) scale(16.8266)">
<stop stop-color="white"/>
<stop offset="1" stop-color="#FAFAFA"/>
</radialGradient>
<radialGradient id="paint15_radial_615_992" cx="0" cy="0" r="1" gradientUnits="userSpaceOnUse" gradientTransform="translate(1480.92 745.062) rotate(85.3036) scale(16.8266)">
<stop stop-color="white"/>
<stop offset="1" stop-color="#FAFAFA"/>
</radialGradient>
<radialGradient id="paint16_radial_615_992" cx="0" cy="0" r="1" gradientUnits="userSpaceOnUse" gradientTransform="translate(1513.63 745.062) rotate(85.3036) scale(16.8266)">
<stop stop-color="white"/>
<stop offset="1" stop-color="#FAFAFA"/>
</radialGradient>
<radialGradient id="paint17_radial_615_992" cx="0" cy="0" r="1" gradientUnits="userSpaceOnUse" gradientTransform="translate(1546.32 745.062) rotate(85.3036) scale(16.8266)">
<stop stop-color="white"/>
<stop offset="1" stop-color="#FAFAFA"/>
</radialGradient>
<radialGradient id="paint18_radial_615_992" cx="0" cy="0" r="1" gradientUnits="userSpaceOnUse" gradientTransform="translate(1579.02 745.062) rotate(85.3036) scale(16.8266)">
<stop stop-color="white"/>
<stop offset="1" stop-color="#FAFAFA"/>
</radialGradient>
<radialGradient id="paint19_radial_615_992" cx="0" cy="0" r="1" gradientUnits="userSpaceOnUse" gradientTransform="translate(1611.72 745.062) rotate(85.3036) scale(16.8266)">
<stop stop-color="white"/>
<stop offset="1" stop-color="#FAFAFA"/>
</radialGradient>
<radialGradient id="paint20_radial_615_992" cx="0" cy="0" r="1" gradientUnits="userSpaceOnUse" gradientTransform="translate(1382.83 811.93) rotate(85.3036) scale(16.8266)">
<stop stop-color="white"/>
<stop offset="1" stop-color="#FAFAFA"/>
</radialGradient>
<radialGradient id="paint21_radial_615_992" cx="0" cy="0" r="1" gradientUnits="userSpaceOnUse" gradientTransform="translate(1415.53 811.93) rotate(85.3036) scale(16.8266)">
<stop stop-color="white"/>
<stop offset="1" stop-color="#FAFAFA"/>
</radialGradient>
<radialGradient id="paint22_radial_615_992" cx="0" cy="0" r="1" gradientUnits="userSpaceOnUse" gradientTransform="translate(1448.23 811.93) rotate(85.3036) scale(16.8266)">
<stop stop-color="white"/>
<stop offset="1" stop-color="#FAFAFA"/>
</radialGradient>
<radialGradient id="paint23_radial_615_992" cx="0" cy="0" r="1" gradientUnits="userSpaceOnUse" gradientTransform="translate(1480.92 811.93) rotate(85.3036) scale(16.8266)">
<stop stop-color="white"/>
<stop offset="1" stop-color="#FAFAFA"/>
</radialGradient>
<radialGradient id="paint24_radial_615_992" cx="0" cy="0" r="1" gradientUnits="userSpaceOnUse" gradientTransform="translate(1513.63 811.93) rotate(85.3036) scale(16.8266)">
<stop stop-color="white"/>
<stop offset="1" stop-color="#FAFAFA"/>
</radialGradient>
<radialGradient id="paint25_radial_615_992" cx="0" cy="0" r="1" gradientUnits="userSpaceOnUse" gradientTransform="translate(1546.32 811.93) rotate(85.3036) scale(16.8266)">
<stop stop-color="white"/>
<stop offset="1" stop-color="#FAFAFA"/>
</radialGradient>
<radialGradient id="paint26_radial_615_992" cx="0" cy="0" r="1" gradientUnits="userSpaceOnUse" gradientTransform="translate(1579.02 811.93) rotate(85.3036) scale(16.8266)">
<stop stop-color="white"/>
<stop offset="1" stop-color="#FAFAFA"/>
</radialGradient>
<radialGradient id="paint27_radial_615_992" cx="0" cy="0" r="1" gradientUnits="userSpaceOnUse" gradientTransform="translate(1611.72 811.93) rotate(85.3036) scale(16.8266)">
<stop stop-color="white"/>
<stop offset="1" stop-color="#FAFAFA"/>
</radialGradient>
<radialGradient id="paint28_radial_615_992" cx="0" cy="0" r="1" gradientUnits="userSpaceOnUse" gradientTransform="translate(1382.83 711.628) rotate(85.3036) scale(16.8266)">
<stop stop-color="white"/>
<stop offset="1" stop-color="#FAFAFA"/>
</radialGradient>
<radialGradient id="paint29_radial_615_992" cx="0" cy="0" r="1" gradientUnits="userSpaceOnUse" gradientTransform="translate(1415.53 711.628) rotate(85.3036) scale(16.8266)">
<stop stop-color="white"/>
<stop offset="1" stop-color="#FAFAFA"/>
</radialGradient>
<radialGradient id="paint30_radial_615_992" cx="0" cy="0" r="1" gradientUnits="userSpaceOnUse" gradientTransform="translate(1448.23 711.628) rotate(85.3036) scale(16.8266)">
<stop stop-color="white"/>
<stop offset="1" stop-color="#FAFAFA"/>
</radialGradient>
<radialGradient id="paint31_radial_615_992" cx="0" cy="0" r="1" gradientUnits="userSpaceOnUse" gradientTransform="translate(1480.92 711.628) rotate(85.3036) scale(16.8266)">
<stop stop-color="white"/>
<stop offset="1" stop-color="#FAFAFA"/>
</radialGradient>
<radialGradient id="paint32_radial_615_992" cx="0" cy="0" r="1" gradientUnits="userSpaceOnUse" gradientTransform="translate(1513.63 711.628) rotate(85.3036) scale(16.8266)">
<stop stop-color="white"/>
<stop offset="1" stop-color="#FAFAFA"/>
</radialGradient>
<radialGradient id="paint33_radial_615_992" cx="0" cy="0" r="1" gradientUnits="userSpaceOnUse" gradientTransform="translate(1546.32 711.628) rotate(85.3036) scale(16.8266)">
<stop stop-color="white"/>
<stop offset="1" stop-color="#FAFAFA"/>
</radialGradient>
<radialGradient id="paint34_radial_615_992" cx="0" cy="0" r="1" gradientUnits="userSpaceOnUse" gradientTransform="translate(1579.02 711.628) rotate(85.3036) scale(16.8266)">
<stop stop-color="white"/>
<stop offset="1" stop-color="#FAFAFA"/>
</radialGradient>
<radialGradient id="paint35_radial_615_992" cx="0" cy="0" r="1" gradientUnits="userSpaceOnUse" gradientTransform="translate(1611.72 711.628) rotate(85.3036) scale(16.8266)">
<stop stop-color="white"/>
<stop offset="1" stop-color="#FAFAFA"/>
</radialGradient>
<radialGradient id="paint36_radial_615_992" cx="0" cy="0" r="1" gradientUnits="userSpaceOnUse" gradientTransform="translate(1382.83 778.496) rotate(85.3036) scale(16.8266)">
<stop stop-color="white"/>
<stop offset="1" stop-color="#FAFAFA"/>
</radialGradient>
<radialGradient id="paint37_radial_615_992" cx="0" cy="0" r="1" gradientUnits="userSpaceOnUse" gradientTransform="translate(1415.53 778.496) rotate(85.3036) scale(16.8266)">
<stop stop-color="white"/>
<stop offset="1" stop-color="#FAFAFA"/>
</radialGradient>
<radialGradient id="paint38_radial_615_992" cx="0" cy="0" r="1" gradientUnits="userSpaceOnUse" gradientTransform="translate(1448.23 778.496) rotate(85.3036) scale(16.8266)">
<stop stop-color="white"/>
<stop offset="1" stop-color="#FAFAFA"/>
</radialGradient>
<radialGradient id="paint39_radial_615_992" cx="0" cy="0" r="1" gradientUnits="userSpaceOnUse" gradientTransform="translate(1480.92 778.496) rotate(85.3036) scale(16.8266)">
<stop stop-color="white"/>
<stop offset="1" stop-color="#FAFAFA"/>
</radialGradient>
<radialGradient id="paint40_radial_615_992" cx="0" cy="0" r="1" gradientUnits="userSpaceOnUse" gradientTransform="translate(1513.63 778.496) rotate(85.3036) scale(16.8266)">
<stop stop-color="white"/>
<stop offset="1" stop-color="#FAFAFA"/>
</radialGradient>
<radialGradient id="paint41_radial_615_992" cx="0" cy="0" r="1" gradientUnits="userSpaceOnUse" gradientTransform="translate(1546.32 778.496) rotate(85.3036) scale(16.8266)">
<stop stop-color="white"/>
<stop offset="1" stop-color="#FAFAFA"/>
</radialGradient>
<radialGradient id="paint42_radial_615_992" cx="0" cy="0" r="1" gradientUnits="userSpaceOnUse" gradientTransform="translate(1579.02 778.496) rotate(85.3036) scale(16.8266)">
<stop stop-color="white"/>
<stop offset="1" stop-color="#FAFAFA"/>
</radialGradient>
<radialGradient id="paint43_radial_615_992" cx="0" cy="0" r="1" gradientUnits="userSpaceOnUse" gradientTransform="translate(1611.72 778.496) rotate(85.3036) scale(16.8266)">
<stop stop-color="white"/>
<stop offset="1" stop-color="#FAFAFA"/>
</radialGradient>
<radialGradient id="paint44_radial_615_992" cx="0" cy="0" r="1" gradientUnits="userSpaceOnUse" gradientTransform="translate(1382.83 845.364) rotate(85.3036) scale(16.8266)">
<stop stop-color="white"/>
<stop offset="1" stop-color="#FAFAFA"/>
</radialGradient>
<radialGradient id="paint45_radial_615_992" cx="0" cy="0" r="1" gradientUnits="userSpaceOnUse" gradientTransform="translate(1415.53 845.364) rotate(85.3036) scale(16.8266)">
<stop stop-color="white"/>
<stop offset="1" stop-color="#FAFAFA"/>
</radialGradient>
<radialGradient id="paint46_radial_615_992" cx="0" cy="0" r="1" gradientUnits="userSpaceOnUse" gradientTransform="translate(1448.23 845.364) rotate(85.3036) scale(16.8266)">
<stop stop-color="white"/>
<stop offset="1" stop-color="#FAFAFA"/>
</radialGradient>
<radialGradient id="paint47_radial_615_992" cx="0" cy="0" r="1" gradientUnits="userSpaceOnUse" gradientTransform="translate(1480.92 845.364) rotate(85.3036) scale(16.8266)">
<stop stop-color="white"/>
<stop offset="1" stop-color="#FAFAFA"/>
</radialGradient>
<radialGradient id="paint48_radial_615_992" cx="0" cy="0" r="1" gradientUnits="userSpaceOnUse" gradientTransform="translate(1513.63 845.364) rotate(85.3036) scale(16.8266)">
<stop stop-color="white"/>
<stop offset="1" stop-color="#FAFAFA"/>
</radialGradient>
<radialGradient id="paint49_radial_615_992" cx="0" cy="0" r="1" gradientUnits="userSpaceOnUse" gradientTransform="translate(1546.32 845.364) rotate(85.3036) scale(16.8266)">
<stop stop-color="white"/>
<stop offset="1" stop-color="#FAFAFA"/>
</radialGradient>
<radialGradient id="paint50_radial_615_992" cx="0" cy="0" r="1" gradientUnits="userSpaceOnUse" gradientTransform="translate(1579.02 845.364) rotate(85.3036) scale(16.8266)">
<stop stop-color="white"/>
<stop offset="1" stop-color="#FAFAFA"/>
</radialGradient>
<radialGradient id="paint51_radial_615_992" cx="0" cy="0" r="1" gradientUnits="userSpaceOnUse" gradientTransform="translate(1611.72 845.364) rotate(85.3036) scale(16.8266)">
<stop stop-color="white"/>
<stop offset="1" stop-color="#FAFAFA"/>
</radialGradient>
</defs>
</svg>
