<svg width="1041" height="1143" viewBox="0 0 1041 1143" fill="none" xmlns="http://www.w3.org/2000/svg">
<rect x="-9.65234" y="455.357" width="964.168" height="964.168" rx="125.316" transform="rotate(-45 -9.65234 455.357)" fill="#FB242B"/>
<rect x="-55.9492" y="456.415" width="1031.82" height="1049.93" rx="136.463" transform="rotate(-45 -55.9492 456.415)" fill="#FB242B" fill-opacity="0.6"/>
<rect x="470.051" y="578.087" width="22.7504" height="22.7504" rx="5.09665" transform="rotate(-45 470.051 578.087)" fill="url(#paint0_radial_615_992)" fill-opacity="0.2"/>
<rect x="512.426" y="578.087" width="22.7504" height="22.7504" rx="5.09665" transform="rotate(-45 512.426 578.087)" fill="url(#paint1_radial_615_992)" fill-opacity="0.2"/>
<rect x="554.785" y="578.087" width="22.7504" height="22.7504" rx="5.09665" transform="rotate(-45 554.785 578.087)" fill="url(#paint2_radial_615_992)" fill-opacity="0.2"/>
<rect x="597.16" y="578.087" width="22.7504" height="22.7504" rx="5.09665" transform="rotate(-45 597.16 578.087)" fill="url(#paint3_radial_615_992)" fill-opacity="0.2"/>
<rect x="639.527" y="578.087" width="22.7504" height="22.7504" rx="5.09665" transform="rotate(-45 639.527 578.087)" fill="url(#paint4_radial_615_992)" fill-opacity="0.2"/>
<rect x="681.895" y="578.087" width="22.7504" height="22.7504" rx="5.09665" transform="rotate(-45 681.895 578.087)" fill="url(#paint5_radial_615_992)" fill-opacity="0.2"/>
<rect x="724.262" y="578.087" width="22.7504" height="22.7504" rx="5.09665" transform="rotate(-45 724.262 578.087)" fill="url(#paint6_radial_615_992)" fill-opacity="0.2"/>
<rect x="766.629" y="578.087" width="22.7504" height="22.7504" rx="5.09665" transform="rotate(-45 766.629 578.087)" fill="url(#paint7_radial_615_992)" fill-opacity="0.2"/>
<rect x="470.051" y="664.73" width="22.7504" height="22.7504" rx="5.09665" transform="rotate(-45 470.051 664.73)" fill="url(#paint8_radial_615_992)" fill-opacity="0.2"/>
<rect x="512.426" y="664.73" width="22.7504" height="22.7504" rx="5.09665" transform="rotate(-45 512.426 664.73)" fill="url(#paint9_radial_615_992)" fill-opacity="0.2"/>
<rect x="554.785" y="664.73" width="22.7504" height="22.7504" rx="5.09665" transform="rotate(-45 554.785 664.73)" fill="url(#paint10_radial_615_992)" fill-opacity="0.2"/>
<rect x="597.16" y="664.73" width="22.7504" height="22.7504" rx="5.09665" transform="rotate(-45 597.16 664.73)" fill="url(#paint11_radial_615_992)" fill-opacity="0.2"/>
<rect x="639.527" y="664.73" width="22.7504" height="22.7504" rx="5.09665" transform="rotate(-45 639.527 664.73)" fill="url(#paint12_radial_615_992)" fill-opacity="0.2"/>
<rect x="681.895" y="664.73" width="22.7504" height="22.7504" rx="5.09665" transform="rotate(-45 681.895 664.73)" fill="url(#paint13_radial_615_992)" fill-opacity="0.2"/>
<rect x="724.262" y="664.73" width="22.7504" height="22.7504" rx="5.09665" transform="rotate(-45 724.262 664.73)" fill="url(#paint14_radial_615_992)" fill-opacity="0.2"/>
<rect x="766.629" y="664.73" width="22.7504" height="22.7504" rx="5.09665" transform="rotate(-45 766.629 664.73)" fill="url(#paint15_radial_615_992)" fill-opacity="0.2"/>
<rect x="470.051" y="751.373" width="22.7504" height="22.7504" rx="5.09665" transform="rotate(-45 470.051 751.373)" fill="url(#paint16_radial_615_992)" fill-opacity="0.2"/>
<rect x="512.426" y="751.373" width="22.7504" height="22.7504" rx="5.09665" transform="rotate(-45 512.426 751.373)" fill="url(#paint17_radial_615_992)" fill-opacity="0.2"/>
<rect x="554.785" y="751.373" width="22.7504" height="22.7504" rx="5.09665" transform="rotate(-45 554.785 751.373)" fill="url(#paint18_radial_615_992)" fill-opacity="0.2"/>
<rect x="597.16" y="751.373" width="22.7504" height="22.7504" rx="5.09665" transform="rotate(-45 597.16 751.373)" fill="url(#paint19_radial_615_992)" fill-opacity="0.2"/>
<rect x="639.527" y="751.373" width="22.7504" height="22.7504" rx="5.09665" transform="rotate(-45 639.527 751.373)" fill="url(#paint20_radial_615_992)" fill-opacity="0.2"/>
<rect x="681.895" y="751.373" width="22.7504" height="22.7504" rx="5.09665" transform="rotate(-45 681.895 751.373)" fill="url(#paint21_radial_615_992)" fill-opacity="0.2"/>
<rect x="724.262" y="751.373" width="22.7504" height="22.7504" rx="5.09665" transform="rotate(-45 724.262 751.373)" fill="url(#paint22_radial_615_992)" fill-opacity="0.2"/>
<rect x="766.629" y="751.373" width="22.7504" height="22.7504" rx="5.09665" transform="rotate(-45 766.629 751.373)" fill="url(#paint23_radial_615_992)" fill-opacity="0.2"/>
<rect x="470.051" y="621.409" width="22.7504" height="22.7504" rx="5.09665" transform="rotate(-45 470.051 621.409)" fill="url(#paint24_radial_615_992)" fill-opacity="0.2"/>
<rect x="512.426" y="621.409" width="22.7504" height="22.7504" rx="5.09665" transform="rotate(-45 512.426 621.409)" fill="url(#paint25_radial_615_992)" fill-opacity="0.2"/>
<rect x="554.785" y="621.409" width="22.7504" height="22.7504" rx="5.09665" transform="rotate(-45 554.785 621.409)" fill="url(#paint26_radial_615_992)" fill-opacity="0.2"/>
<rect x="597.16" y="621.409" width="22.7504" height="22.7504" rx="5.09665" transform="rotate(-45 597.16 621.409)" fill="url(#paint27_radial_615_992)" fill-opacity="0.2"/>
<rect x="639.527" y="621.409" width="22.7504" height="22.7504" rx="5.09665" transform="rotate(-45 639.527 621.409)" fill="url(#paint28_radial_615_992)" fill-opacity="0.2"/>
<rect x="681.895" y="621.409" width="22.7504" height="22.7504" rx="5.09665" transform="rotate(-45 681.895 621.409)" fill="url(#paint29_radial_615_992)" fill-opacity="0.2"/>
<rect x="724.262" y="621.409" width="22.7504" height="22.7504" rx="5.09665" transform="rotate(-45 724.262 621.409)" fill="url(#paint30_radial_615_992)" fill-opacity="0.2"/>
<rect x="766.629" y="621.409" width="22.7504" height="22.7504" rx="5.09665" transform="rotate(-45 766.629 621.409)" fill="url(#paint31_radial_615_992)" fill-opacity="0.2"/>
<rect x="470.051" y="708.052" width="22.7504" height="22.7504" rx="5.09665" transform="rotate(-45 470.051 708.052)" fill="url(#paint32_radial_615_992)" fill-opacity="0.2"/>
<rect x="512.426" y="708.052" width="22.7504" height="22.7504" rx="5.09665" transform="rotate(-45 512.426 708.052)" fill="url(#paint33_radial_615_992)" fill-opacity="0.2"/>
<rect x="554.785" y="708.052" width="22.7504" height="22.7504" rx="5.09665" transform="rotate(-45 554.785 708.052)" fill="url(#paint34_radial_615_992)" fill-opacity="0.2"/>
<rect x="597.16" y="708.052" width="22.7504" height="22.7504" rx="5.09665" transform="rotate(-45 597.16 708.052)" fill="url(#paint35_radial_615_992)" fill-opacity="0.2"/>
<rect x="639.527" y="708.052" width="22.7504" height="22.7504" rx="5.09665" transform="rotate(-45 639.527 708.052)" fill="url(#paint36_radial_615_992)" fill-opacity="0.2"/>
<rect x="681.895" y="708.052" width="22.7504" height="22.7504" rx="5.09665" transform="rotate(-45 681.895 708.052)" fill="url(#paint37_radial_615_992)" fill-opacity="0.2"/>
<rect x="724.262" y="708.052" width="22.7504" height="22.7504" rx="5.09665" transform="rotate(-45 724.262 708.052)" fill="url(#paint38_radial_615_992)" fill-opacity="0.2"/>
<rect x="766.629" y="708.052" width="22.7504" height="22.7504" rx="5.09665" transform="rotate(-45 766.629 708.052)" fill="url(#paint39_radial_615_992)" fill-opacity="0.2"/>
<rect x="470.051" y="794.695" width="22.7504" height="22.7504" rx="5.09665" transform="rotate(-45 470.051 794.695)" fill="url(#paint40_radial_615_992)" fill-opacity="0.2"/>
<rect x="512.426" y="794.695" width="22.7504" height="22.7504" rx="5.09665" transform="rotate(-45 512.426 794.695)" fill="url(#paint41_radial_615_992)" fill-opacity="0.2"/>
<rect x="554.785" y="794.695" width="22.7504" height="22.7504" rx="5.09665" transform="rotate(-45 554.785 794.695)" fill="url(#paint42_radial_615_992)" fill-opacity="0.2"/>
<rect x="597.16" y="794.695" width="22.7504" height="22.7504" rx="5.09665" transform="rotate(-45 597.16 794.695)" fill="url(#paint43_radial_615_992)" fill-opacity="0.2"/>
<rect x="639.527" y="794.695" width="22.7504" height="22.7504" rx="5.09665" transform="rotate(-45 639.527 794.695)" fill="url(#paint44_radial_615_992)" fill-opacity="0.2"/>
<rect x="681.895" y="794.695" width="22.7504" height="22.7504" rx="5.09665" transform="rotate(-45 681.895 794.695)" fill="url(#paint45_radial_615_992)" fill-opacity="0.2"/>
<rect x="724.262" y="794.695" width="22.7504" height="22.7504" rx="5.09665" transform="rotate(-45 724.262 794.695)" fill="url(#paint46_radial_615_992)" fill-opacity="0.2"/>
<rect x="766.629" y="794.695" width="22.7504" height="22.7504" rx="5.09665" transform="rotate(-45 766.629 794.695)" fill="url(#paint47_radial_615_992)" fill-opacity="0.2"/>
<rect x="114.051" y="292.441" width="13.3513" height="13.3513" rx="2.99102" transform="rotate(-45 114.051 292.441)" fill="url(#paint48_radial_615_992)" fill-opacity="0.2"/>
<rect x="138.918" y="292.441" width="13.3513" height="13.3513" rx="2.99102" transform="rotate(-45 138.918 292.441)" fill="url(#paint49_radial_615_992)" fill-opacity="0.2"/>
<rect x="163.777" y="292.441" width="13.3513" height="13.3513" rx="2.99102" transform="rotate(-45 163.777 292.441)" fill="url(#paint50_radial_615_992)" fill-opacity="0.2"/>
<rect x="188.645" y="292.441" width="13.3513" height="13.3513" rx="2.99102" transform="rotate(-45 188.645 292.441)" fill="url(#paint51_radial_615_992)" fill-opacity="0.2"/>
<rect x="213.508" y="292.441" width="13.3513" height="13.3513" rx="2.99102" transform="rotate(-45 213.508 292.441)" fill="url(#paint52_radial_615_992)" fill-opacity="0.2"/>
<rect x="238.371" y="292.441" width="13.3513" height="13.3513" rx="2.99102" transform="rotate(-45 238.371 292.441)" fill="url(#paint53_radial_615_992)" fill-opacity="0.2"/>
<rect x="263.238" y="292.441" width="13.3513" height="13.3513" rx="2.99102" transform="rotate(-45 263.238 292.441)" fill="url(#paint54_radial_615_992)" fill-opacity="0.2"/>
<rect x="288.102" y="292.441" width="13.3513" height="13.3513" rx="2.99102" transform="rotate(-45 288.102 292.441)" fill="url(#paint55_radial_615_992)" fill-opacity="0.2"/>
<rect x="114.051" y="343.288" width="13.3513" height="13.3513" rx="2.99102" transform="rotate(-45 114.051 343.288)" fill="url(#paint56_radial_615_992)" fill-opacity="0.2"/>
<rect x="138.918" y="343.288" width="13.3513" height="13.3513" rx="2.99102" transform="rotate(-45 138.918 343.288)" fill="url(#paint57_radial_615_992)" fill-opacity="0.2"/>
<rect x="163.777" y="343.288" width="13.3513" height="13.3513" rx="2.99102" transform="rotate(-45 163.777 343.288)" fill="url(#paint58_radial_615_992)" fill-opacity="0.2"/>
<rect x="188.645" y="343.288" width="13.3513" height="13.3513" rx="2.99102" transform="rotate(-45 188.645 343.288)" fill="url(#paint59_radial_615_992)" fill-opacity="0.2"/>
<rect x="213.508" y="343.288" width="13.3513" height="13.3513" rx="2.99102" transform="rotate(-45 213.508 343.288)" fill="url(#paint60_radial_615_992)" fill-opacity="0.2"/>
<rect x="238.371" y="343.288" width="13.3513" height="13.3513" rx="2.99102" transform="rotate(-45 238.371 343.288)" fill="url(#paint61_radial_615_992)" fill-opacity="0.2"/>
<rect x="263.238" y="343.288" width="13.3513" height="13.3513" rx="2.99102" transform="rotate(-45 263.238 343.288)" fill="url(#paint62_radial_615_992)" fill-opacity="0.2"/>
<rect x="288.102" y="343.288" width="13.3513" height="13.3513" rx="2.99102" transform="rotate(-45 288.102 343.288)" fill="url(#paint63_radial_615_992)" fill-opacity="0.2"/>
<rect x="114.051" y="394.135" width="13.3513" height="13.3513" rx="2.99102" transform="rotate(-45 114.051 394.135)" fill="url(#paint64_radial_615_992)" fill-opacity="0.2"/>
<rect x="138.918" y="394.135" width="13.3513" height="13.3513" rx="2.99102" transform="rotate(-45 138.918 394.135)" fill="url(#paint65_radial_615_992)" fill-opacity="0.2"/>
<rect x="163.777" y="394.135" width="13.3513" height="13.3513" rx="2.99102" transform="rotate(-45 163.777 394.135)" fill="url(#paint66_radial_615_992)" fill-opacity="0.2"/>
<rect x="188.645" y="394.135" width="13.3513" height="13.3513" rx="2.99102" transform="rotate(-45 188.645 394.135)" fill="url(#paint67_radial_615_992)" fill-opacity="0.2"/>
<rect x="213.508" y="394.135" width="13.3513" height="13.3513" rx="2.99102" transform="rotate(-45 213.508 394.135)" fill="url(#paint68_radial_615_992)" fill-opacity="0.2"/>
<rect x="238.371" y="394.135" width="13.3513" height="13.3513" rx="2.99102" transform="rotate(-45 238.371 394.135)" fill="url(#paint69_radial_615_992)" fill-opacity="0.2"/>
<rect x="263.238" y="394.135" width="13.3513" height="13.3513" rx="2.99102" transform="rotate(-45 263.238 394.135)" fill="url(#paint70_radial_615_992)" fill-opacity="0.2"/>
<rect x="288.102" y="394.135" width="13.3513" height="13.3513" rx="2.99102" transform="rotate(-45 288.102 394.135)" fill="url(#paint71_radial_615_992)" fill-opacity="0.2"/>
<rect x="114.051" y="317.865" width="13.3513" height="13.3513" rx="2.99102" transform="rotate(-45 114.051 317.865)" fill="url(#paint72_radial_615_992)" fill-opacity="0.2"/>
<rect x="138.918" y="317.865" width="13.3513" height="13.3513" rx="2.99102" transform="rotate(-45 138.918 317.865)" fill="url(#paint73_radial_615_992)" fill-opacity="0.2"/>
<rect x="163.777" y="317.865" width="13.3513" height="13.3513" rx="2.99102" transform="rotate(-45 163.777 317.865)" fill="url(#paint74_radial_615_992)" fill-opacity="0.2"/>
<rect x="188.645" y="317.865" width="13.3513" height="13.3513" rx="2.99102" transform="rotate(-45 188.645 317.865)" fill="url(#paint75_radial_615_992)" fill-opacity="0.2"/>
<rect x="213.508" y="317.865" width="13.3513" height="13.3513" rx="2.99102" transform="rotate(-45 213.508 317.865)" fill="url(#paint76_radial_615_992)" fill-opacity="0.2"/>
<rect x="238.371" y="317.865" width="13.3513" height="13.3513" rx="2.99102" transform="rotate(-45 238.371 317.865)" fill="url(#paint77_radial_615_992)" fill-opacity="0.2"/>
<rect x="263.238" y="317.865" width="13.3513" height="13.3513" rx="2.99102" transform="rotate(-45 263.238 317.865)" fill="url(#paint78_radial_615_992)" fill-opacity="0.2"/>
<rect x="288.102" y="317.865" width="13.3513" height="13.3513" rx="2.99102" transform="rotate(-45 288.102 317.865)" fill="url(#paint79_radial_615_992)" fill-opacity="0.2"/>
<rect x="114.051" y="368.711" width="13.3513" height="13.3513" rx="2.99102" transform="rotate(-45 114.051 368.711)" fill="url(#paint80_radial_615_992)" fill-opacity="0.2"/>
<rect x="138.918" y="368.711" width="13.3513" height="13.3513" rx="2.99102" transform="rotate(-45 138.918 368.711)" fill="url(#paint81_radial_615_992)" fill-opacity="0.2"/>
<rect x="163.777" y="368.711" width="13.3513" height="13.3513" rx="2.99102" transform="rotate(-45 163.777 368.711)" fill="url(#paint82_radial_615_992)" fill-opacity="0.2"/>
<rect x="188.645" y="368.711" width="13.3513" height="13.3513" rx="2.99102" transform="rotate(-45 188.645 368.711)" fill="url(#paint83_radial_615_992)" fill-opacity="0.2"/>
<rect x="213.508" y="368.711" width="13.3513" height="13.3513" rx="2.99102" transform="rotate(-45 213.508 368.711)" fill="url(#paint84_radial_615_992)" fill-opacity="0.2"/>
<rect x="238.371" y="368.711" width="13.3513" height="13.3513" rx="2.99102" transform="rotate(-45 238.371 368.711)" fill="url(#paint85_radial_615_992)" fill-opacity="0.2"/>
<rect x="263.238" y="368.711" width="13.3513" height="13.3513" rx="2.99102" transform="rotate(-45 263.238 368.711)" fill="url(#paint86_radial_615_992)" fill-opacity="0.2"/>
<rect x="288.102" y="368.711" width="13.3513" height="13.3513" rx="2.99102" transform="rotate(-45 288.102 368.711)" fill="url(#paint87_radial_615_992)" fill-opacity="0.2"/>
<rect x="114.051" y="419.559" width="13.3513" height="13.3513" rx="2.99102" transform="rotate(-45 114.051 419.559)" fill="url(#paint88_radial_615_992)" fill-opacity="0.2"/>
<rect x="138.918" y="419.559" width="13.3513" height="13.3513" rx="2.99102" transform="rotate(-45 138.918 419.559)" fill="url(#paint89_radial_615_992)" fill-opacity="0.2"/>
<rect x="163.777" y="419.559" width="13.3513" height="13.3513" rx="2.99102" transform="rotate(-45 163.777 419.559)" fill="url(#paint90_radial_615_992)" fill-opacity="0.2"/>
<rect x="188.645" y="419.559" width="13.3513" height="13.3513" rx="2.99102" transform="rotate(-45 188.645 419.559)" fill="url(#paint91_radial_615_992)" fill-opacity="0.2"/>
<rect x="213.508" y="419.559" width="13.3513" height="13.3513" rx="2.99102" transform="rotate(-45 213.508 419.559)" fill="url(#paint92_radial_615_992)" fill-opacity="0.2"/>
<rect x="238.371" y="419.559" width="13.3513" height="13.3513" rx="2.99102" transform="rotate(-45 238.371 419.559)" fill="url(#paint93_radial_615_992)" fill-opacity="0.2"/>
<rect x="263.238" y="419.559" width="13.3513" height="13.3513" rx="2.99102" transform="rotate(-45 263.238 419.559)" fill="url(#paint94_radial_615_992)" fill-opacity="0.2"/>
<rect x="288.102" y="419.559" width="13.3513" height="13.3513" rx="2.99102" transform="rotate(-45 288.102 419.559)" fill="url(#paint95_radial_615_992)" fill-opacity="0.2"/>
<defs>
<radialGradient id="paint0_radial_615_992" cx="0" cy="0" r="1" gradientUnits="userSpaceOnUse" gradientTransform="translate(481.426 589.462) rotate(85.3036) scale(21.8029)">
<stop stop-color="white"/>
<stop offset="1" stop-color="#FAFAFA"/>
</radialGradient>
<radialGradient id="paint1_radial_615_992" cx="0" cy="0" r="1" gradientUnits="userSpaceOnUse" gradientTransform="translate(523.801 589.462) rotate(85.3036) scale(21.8029)">
<stop stop-color="white"/>
<stop offset="1" stop-color="#FAFAFA"/>
</radialGradient>
<radialGradient id="paint2_radial_615_992" cx="0" cy="0" r="1" gradientUnits="userSpaceOnUse" gradientTransform="translate(566.16 589.462) rotate(85.3036) scale(21.8029)">
<stop stop-color="white"/>
<stop offset="1" stop-color="#FAFAFA"/>
</radialGradient>
<radialGradient id="paint3_radial_615_992" cx="0" cy="0" r="1" gradientUnits="userSpaceOnUse" gradientTransform="translate(608.535 589.462) rotate(85.3036) scale(21.8029)">
<stop stop-color="white"/>
<stop offset="1" stop-color="#FAFAFA"/>
</radialGradient>
<radialGradient id="paint4_radial_615_992" cx="0" cy="0" r="1" gradientUnits="userSpaceOnUse" gradientTransform="translate(650.903 589.462) rotate(85.3036) scale(21.8029)">
<stop stop-color="white"/>
<stop offset="1" stop-color="#FAFAFA"/>
</radialGradient>
<radialGradient id="paint5_radial_615_992" cx="0" cy="0" r="1" gradientUnits="userSpaceOnUse" gradientTransform="translate(693.27 589.462) rotate(85.3036) scale(21.8029)">
<stop stop-color="white"/>
<stop offset="1" stop-color="#FAFAFA"/>
</radialGradient>
<radialGradient id="paint6_radial_615_992" cx="0" cy="0" r="1" gradientUnits="userSpaceOnUse" gradientTransform="translate(735.637 589.462) rotate(85.3036) scale(21.8029)">
<stop stop-color="white"/>
<stop offset="1" stop-color="#FAFAFA"/>
</radialGradient>
<radialGradient id="paint7_radial_615_992" cx="0" cy="0" r="1" gradientUnits="userSpaceOnUse" gradientTransform="translate(778.004 589.462) rotate(85.3036) scale(21.8029)">
<stop stop-color="white"/>
<stop offset="1" stop-color="#FAFAFA"/>
</radialGradient>
<radialGradient id="paint8_radial_615_992" cx="0" cy="0" r="1" gradientUnits="userSpaceOnUse" gradientTransform="translate(481.426 676.105) rotate(85.3036) scale(21.8029)">
<stop stop-color="white"/>
<stop offset="1" stop-color="#FAFAFA"/>
</radialGradient>
<radialGradient id="paint9_radial_615_992" cx="0" cy="0" r="1" gradientUnits="userSpaceOnUse" gradientTransform="translate(523.801 676.105) rotate(85.3036) scale(21.8029)">
<stop stop-color="white"/>
<stop offset="1" stop-color="#FAFAFA"/>
</radialGradient>
<radialGradient id="paint10_radial_615_992" cx="0" cy="0" r="1" gradientUnits="userSpaceOnUse" gradientTransform="translate(566.16 676.105) rotate(85.3036) scale(21.8029)">
<stop stop-color="white"/>
<stop offset="1" stop-color="#FAFAFA"/>
</radialGradient>
<radialGradient id="paint11_radial_615_992" cx="0" cy="0" r="1" gradientUnits="userSpaceOnUse" gradientTransform="translate(608.535 676.105) rotate(85.3036) scale(21.8029)">
<stop stop-color="white"/>
<stop offset="1" stop-color="#FAFAFA"/>
</radialGradient>
<radialGradient id="paint12_radial_615_992" cx="0" cy="0" r="1" gradientUnits="userSpaceOnUse" gradientTransform="translate(650.903 676.105) rotate(85.3036) scale(21.8029)">
<stop stop-color="white"/>
<stop offset="1" stop-color="#FAFAFA"/>
</radialGradient>
<radialGradient id="paint13_radial_615_992" cx="0" cy="0" r="1" gradientUnits="userSpaceOnUse" gradientTransform="translate(693.27 676.105) rotate(85.3036) scale(21.8029)">
<stop stop-color="white"/>
<stop offset="1" stop-color="#FAFAFA"/>
</radialGradient>
<radialGradient id="paint14_radial_615_992" cx="0" cy="0" r="1" gradientUnits="userSpaceOnUse" gradientTransform="translate(735.637 676.105) rotate(85.3036) scale(21.8029)">
<stop stop-color="white"/>
<stop offset="1" stop-color="#FAFAFA"/>
</radialGradient>
<radialGradient id="paint15_radial_615_992" cx="0" cy="0" r="1" gradientUnits="userSpaceOnUse" gradientTransform="translate(778.004 676.105) rotate(85.3036) scale(21.8029)">
<stop stop-color="white"/>
<stop offset="1" stop-color="#FAFAFA"/>
</radialGradient>
<radialGradient id="paint16_radial_615_992" cx="0" cy="0" r="1" gradientUnits="userSpaceOnUse" gradientTransform="translate(481.426 762.748) rotate(85.3036) scale(21.8029)">
<stop stop-color="white"/>
<stop offset="1" stop-color="#FAFAFA"/>
</radialGradient>
<radialGradient id="paint17_radial_615_992" cx="0" cy="0" r="1" gradientUnits="userSpaceOnUse" gradientTransform="translate(523.801 762.748) rotate(85.3036) scale(21.8029)">
<stop stop-color="white"/>
<stop offset="1" stop-color="#FAFAFA"/>
</radialGradient>
<radialGradient id="paint18_radial_615_992" cx="0" cy="0" r="1" gradientUnits="userSpaceOnUse" gradientTransform="translate(566.16 762.748) rotate(85.3036) scale(21.8029)">
<stop stop-color="white"/>
<stop offset="1" stop-color="#FAFAFA"/>
</radialGradient>
<radialGradient id="paint19_radial_615_992" cx="0" cy="0" r="1" gradientUnits="userSpaceOnUse" gradientTransform="translate(608.535 762.748) rotate(85.3036) scale(21.8029)">
<stop stop-color="white"/>
<stop offset="1" stop-color="#FAFAFA"/>
</radialGradient>
<radialGradient id="paint20_radial_615_992" cx="0" cy="0" r="1" gradientUnits="userSpaceOnUse" gradientTransform="translate(650.903 762.748) rotate(85.3036) scale(21.8029)">
<stop stop-color="white"/>
<stop offset="1" stop-color="#FAFAFA"/>
</radialGradient>
<radialGradient id="paint21_radial_615_992" cx="0" cy="0" r="1" gradientUnits="userSpaceOnUse" gradientTransform="translate(693.27 762.748) rotate(85.3036) scale(21.8029)">
<stop stop-color="white"/>
<stop offset="1" stop-color="#FAFAFA"/>
</radialGradient>
<radialGradient id="paint22_radial_615_992" cx="0" cy="0" r="1" gradientUnits="userSpaceOnUse" gradientTransform="translate(735.637 762.748) rotate(85.3036) scale(21.8029)">
<stop stop-color="white"/>
<stop offset="1" stop-color="#FAFAFA"/>
</radialGradient>
<radialGradient id="paint23_radial_615_992" cx="0" cy="0" r="1" gradientUnits="userSpaceOnUse" gradientTransform="translate(778.004 762.748) rotate(85.3036) scale(21.8029)">
<stop stop-color="white"/>
<stop offset="1" stop-color="#FAFAFA"/>
</radialGradient>
<radialGradient id="paint24_radial_615_992" cx="0" cy="0" r="1" gradientUnits="userSpaceOnUse" gradientTransform="translate(481.426 632.784) rotate(85.3036) scale(21.8029)">
<stop stop-color="white"/>
<stop offset="1" stop-color="#FAFAFA"/>
</radialGradient>
<radialGradient id="paint25_radial_615_992" cx="0" cy="0" r="1" gradientUnits="userSpaceOnUse" gradientTransform="translate(523.801 632.784) rotate(85.3036) scale(21.8029)">
<stop stop-color="white"/>
<stop offset="1" stop-color="#FAFAFA"/>
</radialGradient>
<radialGradient id="paint26_radial_615_992" cx="0" cy="0" r="1" gradientUnits="userSpaceOnUse" gradientTransform="translate(566.16 632.784) rotate(85.3036) scale(21.8029)">
<stop stop-color="white"/>
<stop offset="1" stop-color="#FAFAFA"/>
</radialGradient>
<radialGradient id="paint27_radial_615_992" cx="0" cy="0" r="1" gradientUnits="userSpaceOnUse" gradientTransform="translate(608.535 632.784) rotate(85.3036) scale(21.8029)">
<stop stop-color="white"/>
<stop offset="1" stop-color="#FAFAFA"/>
</radialGradient>
<radialGradient id="paint28_radial_615_992" cx="0" cy="0" r="1" gradientUnits="userSpaceOnUse" gradientTransform="translate(650.903 632.784) rotate(85.3036) scale(21.8029)">
<stop stop-color="white"/>
<stop offset="1" stop-color="#FAFAFA"/>
</radialGradient>
<radialGradient id="paint29_radial_615_992" cx="0" cy="0" r="1" gradientUnits="userSpaceOnUse" gradientTransform="translate(693.27 632.784) rotate(85.3036) scale(21.8029)">
<stop stop-color="white"/>
<stop offset="1" stop-color="#FAFAFA"/>
</radialGradient>
<radialGradient id="paint30_radial_615_992" cx="0" cy="0" r="1" gradientUnits="userSpaceOnUse" gradientTransform="translate(735.637 632.784) rotate(85.3036) scale(21.8029)">
<stop stop-color="white"/>
<stop offset="1" stop-color="#FAFAFA"/>
</radialGradient>
<radialGradient id="paint31_radial_615_992" cx="0" cy="0" r="1" gradientUnits="userSpaceOnUse" gradientTransform="translate(778.004 632.784) rotate(85.3036) scale(21.8029)">
<stop stop-color="white"/>
<stop offset="1" stop-color="#FAFAFA"/>
</radialGradient>
<radialGradient id="paint32_radial_615_992" cx="0" cy="0" r="1" gradientUnits="userSpaceOnUse" gradientTransform="translate(481.426 719.427) rotate(85.3036) scale(21.8029)">
<stop stop-color="white"/>
<stop offset="1" stop-color="#FAFAFA"/>
</radialGradient>
<radialGradient id="paint33_radial_615_992" cx="0" cy="0" r="1" gradientUnits="userSpaceOnUse" gradientTransform="translate(523.801 719.427) rotate(85.3036) scale(21.8029)">
<stop stop-color="white"/>
<stop offset="1" stop-color="#FAFAFA"/>
</radialGradient>
<radialGradient id="paint34_radial_615_992" cx="0" cy="0" r="1" gradientUnits="userSpaceOnUse" gradientTransform="translate(566.16 719.427) rotate(85.3036) scale(21.8029)">
<stop stop-color="white"/>
<stop offset="1" stop-color="#FAFAFA"/>
</radialGradient>
<radialGradient id="paint35_radial_615_992" cx="0" cy="0" r="1" gradientUnits="userSpaceOnUse" gradientTransform="translate(608.535 719.427) rotate(85.3036) scale(21.8029)">
<stop stop-color="white"/>
<stop offset="1" stop-color="#FAFAFA"/>
</radialGradient>
<radialGradient id="paint36_radial_615_992" cx="0" cy="0" r="1" gradientUnits="userSpaceOnUse" gradientTransform="translate(650.903 719.427) rotate(85.3036) scale(21.8029)">
<stop stop-color="white"/>
<stop offset="1" stop-color="#FAFAFA"/>
</radialGradient>
<radialGradient id="paint37_radial_615_992" cx="0" cy="0" r="1" gradientUnits="userSpaceOnUse" gradientTransform="translate(693.27 719.427) rotate(85.3036) scale(21.8029)">
<stop stop-color="white"/>
<stop offset="1" stop-color="#FAFAFA"/>
</radialGradient>
<radialGradient id="paint38_radial_615_992" cx="0" cy="0" r="1" gradientUnits="userSpaceOnUse" gradientTransform="translate(735.637 719.427) rotate(85.3036) scale(21.8029)">
<stop stop-color="white"/>
<stop offset="1" stop-color="#FAFAFA"/>
</radialGradient>
<radialGradient id="paint39_radial_615_992" cx="0" cy="0" r="1" gradientUnits="userSpaceOnUse" gradientTransform="translate(778.004 719.427) rotate(85.3036) scale(21.8029)">
<stop stop-color="white"/>
<stop offset="1" stop-color="#FAFAFA"/>
</radialGradient>
<radialGradient id="paint40_radial_615_992" cx="0" cy="0" r="1" gradientUnits="userSpaceOnUse" gradientTransform="translate(481.426 806.07) rotate(85.3036) scale(21.8029)">
<stop stop-color="white"/>
<stop offset="1" stop-color="#FAFAFA"/>
</radialGradient>
<radialGradient id="paint41_radial_615_992" cx="0" cy="0" r="1" gradientUnits="userSpaceOnUse" gradientTransform="translate(523.801 806.07) rotate(85.3036) scale(21.8029)">
<stop stop-color="white"/>
<stop offset="1" stop-color="#FAFAFA"/>
</radialGradient>
<radialGradient id="paint42_radial_615_992" cx="0" cy="0" r="1" gradientUnits="userSpaceOnUse" gradientTransform="translate(566.16 806.07) rotate(85.3036) scale(21.8029)">
<stop stop-color="white"/>
<stop offset="1" stop-color="#FAFAFA"/>
</radialGradient>
<radialGradient id="paint43_radial_615_992" cx="0" cy="0" r="1" gradientUnits="userSpaceOnUse" gradientTransform="translate(608.535 806.07) rotate(85.3036) scale(21.8029)">
<stop stop-color="white"/>
<stop offset="1" stop-color="#FAFAFA"/>
</radialGradient>
<radialGradient id="paint44_radial_615_992" cx="0" cy="0" r="1" gradientUnits="userSpaceOnUse" gradientTransform="translate(650.903 806.07) rotate(85.3036) scale(21.8029)">
<stop stop-color="white"/>
<stop offset="1" stop-color="#FAFAFA"/>
</radialGradient>
<radialGradient id="paint45_radial_615_992" cx="0" cy="0" r="1" gradientUnits="userSpaceOnUse" gradientTransform="translate(693.27 806.07) rotate(85.3036) scale(21.8029)">
<stop stop-color="white"/>
<stop offset="1" stop-color="#FAFAFA"/>
</radialGradient>
<radialGradient id="paint46_radial_615_992" cx="0" cy="0" r="1" gradientUnits="userSpaceOnUse" gradientTransform="translate(735.637 806.07) rotate(85.3036) scale(21.8029)">
<stop stop-color="white"/>
<stop offset="1" stop-color="#FAFAFA"/>
</radialGradient>
<radialGradient id="paint47_radial_615_992" cx="0" cy="0" r="1" gradientUnits="userSpaceOnUse" gradientTransform="translate(778.004 806.07) rotate(85.3036) scale(21.8029)">
<stop stop-color="white"/>
<stop offset="1" stop-color="#FAFAFA"/>
</radialGradient>
<radialGradient id="paint48_radial_615_992" cx="0" cy="0" r="1" gradientUnits="userSpaceOnUse" gradientTransform="translate(120.726 299.117) rotate(85.3036) scale(12.7953)">
<stop stop-color="white"/>
<stop offset="1" stop-color="#FAFAFA"/>
</radialGradient>
<radialGradient id="paint49_radial_615_992" cx="0" cy="0" r="1" gradientUnits="userSpaceOnUse" gradientTransform="translate(145.594 299.117) rotate(85.3036) scale(12.7953)">
<stop stop-color="white"/>
<stop offset="1" stop-color="#FAFAFA"/>
</radialGradient>
<radialGradient id="paint50_radial_615_992" cx="0" cy="0" r="1" gradientUnits="userSpaceOnUse" gradientTransform="translate(170.453 299.117) rotate(85.3036) scale(12.7953)">
<stop stop-color="white"/>
<stop offset="1" stop-color="#FAFAFA"/>
</radialGradient>
<radialGradient id="paint51_radial_615_992" cx="0" cy="0" r="1" gradientUnits="userSpaceOnUse" gradientTransform="translate(195.32 299.117) rotate(85.3036) scale(12.7953)">
<stop stop-color="white"/>
<stop offset="1" stop-color="#FAFAFA"/>
</radialGradient>
<radialGradient id="paint52_radial_615_992" cx="0" cy="0" r="1" gradientUnits="userSpaceOnUse" gradientTransform="translate(220.183 299.117) rotate(85.3036) scale(12.7953)">
<stop stop-color="white"/>
<stop offset="1" stop-color="#FAFAFA"/>
</radialGradient>
<radialGradient id="paint53_radial_615_992" cx="0" cy="0" r="1" gradientUnits="userSpaceOnUse" gradientTransform="translate(245.047 299.117) rotate(85.3036) scale(12.7953)">
<stop stop-color="white"/>
<stop offset="1" stop-color="#FAFAFA"/>
</radialGradient>
<radialGradient id="paint54_radial_615_992" cx="0" cy="0" r="1" gradientUnits="userSpaceOnUse" gradientTransform="translate(269.914 299.117) rotate(85.3036) scale(12.7953)">
<stop stop-color="white"/>
<stop offset="1" stop-color="#FAFAFA"/>
</radialGradient>
<radialGradient id="paint55_radial_615_992" cx="0" cy="0" r="1" gradientUnits="userSpaceOnUse" gradientTransform="translate(294.777 299.117) rotate(85.3036) scale(12.7953)">
<stop stop-color="white"/>
<stop offset="1" stop-color="#FAFAFA"/>
</radialGradient>
<radialGradient id="paint56_radial_615_992" cx="0" cy="0" r="1" gradientUnits="userSpaceOnUse" gradientTransform="translate(120.726 349.963) rotate(85.3036) scale(12.7953)">
<stop stop-color="white"/>
<stop offset="1" stop-color="#FAFAFA"/>
</radialGradient>
<radialGradient id="paint57_radial_615_992" cx="0" cy="0" r="1" gradientUnits="userSpaceOnUse" gradientTransform="translate(145.594 349.963) rotate(85.3036) scale(12.7953)">
<stop stop-color="white"/>
<stop offset="1" stop-color="#FAFAFA"/>
</radialGradient>
<radialGradient id="paint58_radial_615_992" cx="0" cy="0" r="1" gradientUnits="userSpaceOnUse" gradientTransform="translate(170.453 349.963) rotate(85.3036) scale(12.7953)">
<stop stop-color="white"/>
<stop offset="1" stop-color="#FAFAFA"/>
</radialGradient>
<radialGradient id="paint59_radial_615_992" cx="0" cy="0" r="1" gradientUnits="userSpaceOnUse" gradientTransform="translate(195.32 349.963) rotate(85.3036) scale(12.7953)">
<stop stop-color="white"/>
<stop offset="1" stop-color="#FAFAFA"/>
</radialGradient>
<radialGradient id="paint60_radial_615_992" cx="0" cy="0" r="1" gradientUnits="userSpaceOnUse" gradientTransform="translate(220.183 349.963) rotate(85.3036) scale(12.7953)">
<stop stop-color="white"/>
<stop offset="1" stop-color="#FAFAFA"/>
</radialGradient>
<radialGradient id="paint61_radial_615_992" cx="0" cy="0" r="1" gradientUnits="userSpaceOnUse" gradientTransform="translate(245.047 349.963) rotate(85.3036) scale(12.7953)">
<stop stop-color="white"/>
<stop offset="1" stop-color="#FAFAFA"/>
</radialGradient>
<radialGradient id="paint62_radial_615_992" cx="0" cy="0" r="1" gradientUnits="userSpaceOnUse" gradientTransform="translate(269.914 349.963) rotate(85.3036) scale(12.7953)">
<stop stop-color="white"/>
<stop offset="1" stop-color="#FAFAFA"/>
</radialGradient>
<radialGradient id="paint63_radial_615_992" cx="0" cy="0" r="1" gradientUnits="userSpaceOnUse" gradientTransform="translate(294.777 349.963) rotate(85.3036) scale(12.7953)">
<stop stop-color="white"/>
<stop offset="1" stop-color="#FAFAFA"/>
</radialGradient>
<radialGradient id="paint64_radial_615_992" cx="0" cy="0" r="1" gradientUnits="userSpaceOnUse" gradientTransform="translate(120.726 400.81) rotate(85.3036) scale(12.7953)">
<stop stop-color="white"/>
<stop offset="1" stop-color="#FAFAFA"/>
</radialGradient>
<radialGradient id="paint65_radial_615_992" cx="0" cy="0" r="1" gradientUnits="userSpaceOnUse" gradientTransform="translate(145.594 400.81) rotate(85.3036) scale(12.7953)">
<stop stop-color="white"/>
<stop offset="1" stop-color="#FAFAFA"/>
</radialGradient>
<radialGradient id="paint66_radial_615_992" cx="0" cy="0" r="1" gradientUnits="userSpaceOnUse" gradientTransform="translate(170.453 400.81) rotate(85.3036) scale(12.7953)">
<stop stop-color="white"/>
<stop offset="1" stop-color="#FAFAFA"/>
</radialGradient>
<radialGradient id="paint67_radial_615_992" cx="0" cy="0" r="1" gradientUnits="userSpaceOnUse" gradientTransform="translate(195.32 400.81) rotate(85.3036) scale(12.7953)">
<stop stop-color="white"/>
<stop offset="1" stop-color="#FAFAFA"/>
</radialGradient>
<radialGradient id="paint68_radial_615_992" cx="0" cy="0" r="1" gradientUnits="userSpaceOnUse" gradientTransform="translate(220.183 400.81) rotate(85.3036) scale(12.7953)">
<stop stop-color="white"/>
<stop offset="1" stop-color="#FAFAFA"/>
</radialGradient>
<radialGradient id="paint69_radial_615_992" cx="0" cy="0" r="1" gradientUnits="userSpaceOnUse" gradientTransform="translate(245.047 400.81) rotate(85.3036) scale(12.7953)">
<stop stop-color="white"/>
<stop offset="1" stop-color="#FAFAFA"/>
</radialGradient>
<radialGradient id="paint70_radial_615_992" cx="0" cy="0" r="1" gradientUnits="userSpaceOnUse" gradientTransform="translate(269.914 400.81) rotate(85.3036) scale(12.7953)">
<stop stop-color="white"/>
<stop offset="1" stop-color="#FAFAFA"/>
</radialGradient>
<radialGradient id="paint71_radial_615_992" cx="0" cy="0" r="1" gradientUnits="userSpaceOnUse" gradientTransform="translate(294.777 400.81) rotate(85.3036) scale(12.7953)">
<stop stop-color="white"/>
<stop offset="1" stop-color="#FAFAFA"/>
</radialGradient>
<radialGradient id="paint72_radial_615_992" cx="0" cy="0" r="1" gradientUnits="userSpaceOnUse" gradientTransform="translate(120.726 324.54) rotate(85.3036) scale(12.7953)">
<stop stop-color="white"/>
<stop offset="1" stop-color="#FAFAFA"/>
</radialGradient>
<radialGradient id="paint73_radial_615_992" cx="0" cy="0" r="1" gradientUnits="userSpaceOnUse" gradientTransform="translate(145.594 324.54) rotate(85.3036) scale(12.7953)">
<stop stop-color="white"/>
<stop offset="1" stop-color="#FAFAFA"/>
</radialGradient>
<radialGradient id="paint74_radial_615_992" cx="0" cy="0" r="1" gradientUnits="userSpaceOnUse" gradientTransform="translate(170.453 324.54) rotate(85.3036) scale(12.7953)">
<stop stop-color="white"/>
<stop offset="1" stop-color="#FAFAFA"/>
</radialGradient>
<radialGradient id="paint75_radial_615_992" cx="0" cy="0" r="1" gradientUnits="userSpaceOnUse" gradientTransform="translate(195.32 324.54) rotate(85.3036) scale(12.7953)">
<stop stop-color="white"/>
<stop offset="1" stop-color="#FAFAFA"/>
</radialGradient>
<radialGradient id="paint76_radial_615_992" cx="0" cy="0" r="1" gradientUnits="userSpaceOnUse" gradientTransform="translate(220.183 324.54) rotate(85.3036) scale(12.7953)">
<stop stop-color="white"/>
<stop offset="1" stop-color="#FAFAFA"/>
</radialGradient>
<radialGradient id="paint77_radial_615_992" cx="0" cy="0" r="1" gradientUnits="userSpaceOnUse" gradientTransform="translate(245.047 324.54) rotate(85.3036) scale(12.7953)">
<stop stop-color="white"/>
<stop offset="1" stop-color="#FAFAFA"/>
</radialGradient>
<radialGradient id="paint78_radial_615_992" cx="0" cy="0" r="1" gradientUnits="userSpaceOnUse" gradientTransform="translate(269.914 324.54) rotate(85.3036) scale(12.7953)">
<stop stop-color="white"/>
<stop offset="1" stop-color="#FAFAFA"/>
</radialGradient>
<radialGradient id="paint79_radial_615_992" cx="0" cy="0" r="1" gradientUnits="userSpaceOnUse" gradientTransform="translate(294.777 324.54) rotate(85.3036) scale(12.7953)">
<stop stop-color="white"/>
<stop offset="1" stop-color="#FAFAFA"/>
</radialGradient>
<radialGradient id="paint80_radial_615_992" cx="0" cy="0" r="1" gradientUnits="userSpaceOnUse" gradientTransform="translate(120.726 375.387) rotate(85.3036) scale(12.7953)">
<stop stop-color="white"/>
<stop offset="1" stop-color="#FAFAFA"/>
</radialGradient>
<radialGradient id="paint81_radial_615_992" cx="0" cy="0" r="1" gradientUnits="userSpaceOnUse" gradientTransform="translate(145.594 375.387) rotate(85.3036) scale(12.7953)">
<stop stop-color="white"/>
<stop offset="1" stop-color="#FAFAFA"/>
</radialGradient>
<radialGradient id="paint82_radial_615_992" cx="0" cy="0" r="1" gradientUnits="userSpaceOnUse" gradientTransform="translate(170.453 375.387) rotate(85.3036) scale(12.7953)">
<stop stop-color="white"/>
<stop offset="1" stop-color="#FAFAFA"/>
</radialGradient>
<radialGradient id="paint83_radial_615_992" cx="0" cy="0" r="1" gradientUnits="userSpaceOnUse" gradientTransform="translate(195.32 375.387) rotate(85.3036) scale(12.7953)">
<stop stop-color="white"/>
<stop offset="1" stop-color="#FAFAFA"/>
</radialGradient>
<radialGradient id="paint84_radial_615_992" cx="0" cy="0" r="1" gradientUnits="userSpaceOnUse" gradientTransform="translate(220.183 375.387) rotate(85.3036) scale(12.7953)">
<stop stop-color="white"/>
<stop offset="1" stop-color="#FAFAFA"/>
</radialGradient>
<radialGradient id="paint85_radial_615_992" cx="0" cy="0" r="1" gradientUnits="userSpaceOnUse" gradientTransform="translate(245.047 375.387) rotate(85.3036) scale(12.7953)">
<stop stop-color="white"/>
<stop offset="1" stop-color="#FAFAFA"/>
</radialGradient>
<radialGradient id="paint86_radial_615_992" cx="0" cy="0" r="1" gradientUnits="userSpaceOnUse" gradientTransform="translate(269.914 375.387) rotate(85.3036) scale(12.7953)">
<stop stop-color="white"/>
<stop offset="1" stop-color="#FAFAFA"/>
</radialGradient>
<radialGradient id="paint87_radial_615_992" cx="0" cy="0" r="1" gradientUnits="userSpaceOnUse" gradientTransform="translate(294.777 375.387) rotate(85.3036) scale(12.7953)">
<stop stop-color="white"/>
<stop offset="1" stop-color="#FAFAFA"/>
</radialGradient>
<radialGradient id="paint88_radial_615_992" cx="0" cy="0" r="1" gradientUnits="userSpaceOnUse" gradientTransform="translate(120.726 426.234) rotate(85.3036) scale(12.7953)">
<stop stop-color="white"/>
<stop offset="1" stop-color="#FAFAFA"/>
</radialGradient>
<radialGradient id="paint89_radial_615_992" cx="0" cy="0" r="1" gradientUnits="userSpaceOnUse" gradientTransform="translate(145.594 426.234) rotate(85.3036) scale(12.7953)">
<stop stop-color="white"/>
<stop offset="1" stop-color="#FAFAFA"/>
</radialGradient>
<radialGradient id="paint90_radial_615_992" cx="0" cy="0" r="1" gradientUnits="userSpaceOnUse" gradientTransform="translate(170.453 426.234) rotate(85.3036) scale(12.7953)">
<stop stop-color="white"/>
<stop offset="1" stop-color="#FAFAFA"/>
</radialGradient>
<radialGradient id="paint91_radial_615_992" cx="0" cy="0" r="1" gradientUnits="userSpaceOnUse" gradientTransform="translate(195.32 426.234) rotate(85.3036) scale(12.7953)">
<stop stop-color="white"/>
<stop offset="1" stop-color="#FAFAFA"/>
</radialGradient>
<radialGradient id="paint92_radial_615_992" cx="0" cy="0" r="1" gradientUnits="userSpaceOnUse" gradientTransform="translate(220.183 426.234) rotate(85.3036) scale(12.7953)">
<stop stop-color="white"/>
<stop offset="1" stop-color="#FAFAFA"/>
</radialGradient>
<radialGradient id="paint93_radial_615_992" cx="0" cy="0" r="1" gradientUnits="userSpaceOnUse" gradientTransform="translate(245.047 426.234) rotate(85.3036) scale(12.7953)">
<stop stop-color="white"/>
<stop offset="1" stop-color="#FAFAFA"/>
</radialGradient>
<radialGradient id="paint94_radial_615_992" cx="0" cy="0" r="1" gradientUnits="userSpaceOnUse" gradientTransform="translate(269.914 426.234) rotate(85.3036) scale(12.7953)">
<stop stop-color="white"/>
<stop offset="1" stop-color="#FAFAFA"/>
</radialGradient>
<radialGradient id="paint95_radial_615_992" cx="0" cy="0" r="1" gradientUnits="userSpaceOnUse" gradientTransform="translate(294.777 426.234) rotate(85.3036) scale(12.7953)">
<stop stop-color="white"/>
<stop offset="1" stop-color="#FAFAFA"/>
</radialGradient>
</defs>
</svg>
